<?xml version="1.0" encoding="UTF-8"?>
<svg version="1.1" xmlns="http://www.w3.org/2000/svg" width="2560" height="759">
<path d="M0 0 C844.8 0 1689.6 0 2560 0 C2560 250.47 2560 500.94 2560 759 C1715.2 759 870.4 759 0 759 C0 508.53 0 258.06 0 0 Z " fill="#000000" transform="translate(0,0)"/>
<path d="M0 0 C844.8 0 1689.6 0 2560 0 C2560 250.47 2560 500.94 2560 759 C1715.2 759 870.4 759 0 759 C0 508.53 0 258.06 0 0 Z M35.12890625 40.41796875 C22.21557059 56.0798309 16.83038427 72.28867784 16.86857224 92.41589165 C16.8665196 93.43262815 16.86446697 94.44936465 16.86235213 95.49691135 C16.85670078 98.90150746 16.85813707 102.30606288 16.85955811 105.71066284 C16.85697342 108.17722181 16.85395997 110.64378036 16.8505547 113.11033833 C16.84333879 119.17667573 16.84078269 125.24299954 16.84022565 131.3093399 C16.83931002 138.57779872 16.8326367 145.84624944 16.82587883 153.11470476 C16.80983904 170.6773803 16.80391838 188.24005496 16.79913008 205.80273651 C16.79679267 214.1120572 16.79318992 222.4213772 16.7894347 230.73069736 C16.77660261 259.17973164 16.76588185 287.62876554 16.7624321 316.07780266 C16.76221047 317.86269989 16.76198868 319.64759712 16.76176675 321.43249435 C16.76154611 323.22166197 16.76132563 325.01082959 16.7611053 326.79999721 C16.76066275 330.38928851 16.76021563 333.9785798 16.75976562 337.56787109 C16.75965623 338.4578027 16.75954684 339.3477343 16.75943414 340.26463353 C16.75580213 369.13169212 16.73987491 397.99872563 16.71657526 426.86577461 C16.69198018 457.39363525 16.67825947 487.92148155 16.67706418 518.44935238 C16.67689273 521.80022057 16.6766773 525.15108876 16.67642975 528.50195694 C16.67637398 529.32702077 16.67631821 530.1520846 16.67626075 531.00215037 C16.67511022 544.27844174 16.6640883 557.55470734 16.64954269 570.83099 C16.63517783 584.17288207 16.63194071 597.5147411 16.63998267 610.85663877 C16.6444385 618.78174088 16.64058012 626.70673634 16.62474416 634.63182443 C16.61384423 640.55045995 16.6186363 646.46901539 16.62951604 652.38765325 C16.63147888 654.78123985 16.6283676 657.1748371 16.61967167 659.56840871 C16.60859517 662.82326568 16.61605716 666.07758396 16.6280632 669.33242607 C16.62046801 670.26035487 16.61287282 671.18828366 16.60504746 672.14433151 C16.74749646 690.04886491 25.35929838 707.62086408 37.75 720.25 C53.83184228 736.05292283 72.87827217 741.48128632 94.87826824 741.37604749 C96.57712013 741.37902583 98.27597013 741.38331858 99.9748158 741.38879583 C104.64386244 741.40004556 109.31272107 741.39265843 113.98176272 741.38222598 C119.07997027 741.37416516 124.17815109 741.38357871 129.27635586 741.39073652 C138.24623583 741.40091821 147.21606113 741.39992054 156.18594229 741.39168589 C169.61419562 741.37941392 183.04240455 741.38443168 196.47065887 741.39283381 C219.35535032 741.40664332 242.24001468 741.40619957 265.12470627 741.39799118 C288.32115455 741.38971578 311.51758978 741.387968 334.71403885 741.39420319 C335.81125634 741.3944935 335.81125634 741.3944935 336.93063985 741.39478968 C343.6341427 741.39656428 350.33764553 741.39840599 357.04114834 741.40032831 C373.8512388 741.40514103 390.66132942 741.40890891 407.47142029 741.41196942 C408.24174101 741.41211013 409.01206173 741.41225083 409.8057255 741.4123958 C447.78467924 741.4192333 485.76363064 741.41462314 523.74258423 741.40888596 C525.40641123 741.40863505 527.07023824 741.40838415 528.73406524 741.40813327 C529.97096099 741.40794672 529.97096099 741.40794672 531.23284454 741.4077564 C542.1069725 741.40611686 552.98110045 741.40450704 563.85522842 741.40297651 C564.68642254 741.40285903 565.51761665 741.40274155 566.37399846 741.4026205 C604.88117484 741.39721832 643.38835005 741.39850169 681.8955266 741.40126788 C686.09554851 741.40156727 690.29557041 741.40185377 694.49559232 741.40214171 C707.1547663 741.40301347 719.81394028 741.40390429 732.47311426 741.4048345 C771.07696038 741.40766819 809.6808065 741.40946884 848.28465271 741.41037941 C849.14422108 741.41040002 850.00378946 741.41042062 850.88940536 741.41044185 C906.56279119 741.41175821 962.23617572 741.40845508 1017.90956116 741.40183067 C1018.79843098 741.40172532 1019.68730081 741.40161996 1020.60310608 741.40151142 C1050.37648069 741.3979823 1080.14985528 741.39421413 1109.92322986 741.39042152 C1199.96074184 741.37896011 1289.99824913 741.37267929 1450.7929544 741.39076752 C1480.55878253 741.39455711 1510.32461067 741.39830263 1540.09043884 741.40183067 C1541.42336742 741.40198927 1541.42336742 741.40198927 1542.78322384 741.40215108 C1598.42726516 741.40876634 1654.07130558 741.41171329 1709.71534729 741.41037941 C1710.57463141 741.41035914 1711.43391552 741.41033887 1712.31923855 741.41031799 C1750.90159945 741.40939785 1789.48396025 741.407483 1828.06632105 741.4046479 C1840.71993507 741.40371924 1853.37354909 741.40283624 1866.02716312 741.40196876 C1870.22476326 741.40168078 1874.4223634 741.40138872 1878.61996355 741.40108718 C1917.12823348 741.39832936 1955.63650184 741.39753366 1994.14477158 741.40297651 C1995.39077335 741.40315189 1995.39077335 741.40315189 1996.66194687 741.4033308 C2007.52994285 741.40486621 2018.3979388 741.40649414 2029.26593476 741.40813327 C2030.50185633 741.40831963 2030.50185633 741.40831963 2031.76274601 741.40850975 C2033.42506441 741.40876044 2035.08738281 741.40901133 2036.74970122 741.40926245 C2074.67599494 741.41497674 2112.60228589 741.41889691 2150.52857971 741.41196942 C2151.29788765 741.41182936 2152.06719559 741.4116893 2152.85981589 741.41154499 C2169.6422629 741.40845476 2186.4247096 741.40449618 2203.20715619 741.39968358 C2209.90009116 741.39777586 2216.59302615 741.39597407 2223.28596115 741.39420319 C2224.01605167 741.39400694 2224.74614219 741.39381069 2225.49835667 741.3936085 C2248.66577913 741.38743027 2271.83318812 741.3904437 2295.00060958 741.3987535 C2318.43723905 741.40711803 2341.87383955 741.40513237 2365.31046832 741.39046794 C2378.65000334 741.38244049 2391.98947749 741.3826666 2405.32900965 741.39491273 C2414.17766466 741.40222061 2423.02627207 741.39873555 2431.8749213 741.38631217 C2436.89775908 741.37956598 2441.92047525 741.37753876 2446.94330777 741.38876172 C2451.50148749 741.39885888 2456.05944002 741.39513359 2460.61760533 741.3804376 C2462.25137354 741.37757336 2463.88516036 741.37969942 2465.51891239 741.38751461 C2486.95306248 741.4829509 2505.37770828 734.98807131 2521.25 720.3125 C2534.98494573 705.65030055 2542.34596747 686.47320866 2542.25726891 666.50626183 C2542.26077498 665.49324621 2542.26428105 664.48023059 2542.26789337 663.43651754 C2542.27717873 660.05050834 2542.27229139 656.66467222 2542.26742554 653.27865601 C2542.27116323 650.8230461 2542.27576523 648.36743738 2542.28115618 645.91183054 C2542.29083417 640.57704913 2542.29430316 635.24231763 2542.29224396 629.90753174 C2542.28918921 621.97411488 2542.29752844 614.04073805 2542.30799321 606.10732899 C2542.3273211 591.11186085 2542.33296099 576.11640639 2542.33410732 561.12092726 C2542.33502695 549.53853842 2542.33914646 537.95615495 2542.34550858 526.37376785 C2542.34730371 523.03791162 2542.34908334 519.70205538 2542.35085833 516.36619914 C2542.35152148 515.12218441 2542.35152148 515.12218441 2542.35219802 513.85303808 C2542.36450418 490.52916912 2542.37239938 467.20530202 2542.37151146 443.88142967 C2542.3714803 443.00230861 2542.37144914 442.12318755 2542.37141704 441.21742646 C2542.37125083 436.76183876 2542.37105275 432.30625105 2542.37084763 427.85066335 C2542.37080774 426.96579386 2542.37076785 426.08092438 2542.37072675 425.16924067 C2542.37064587 423.37981894 2542.37056228 421.59039721 2542.37047596 419.80097549 C2542.3692507 391.96609167 2542.38426001 364.13125659 2542.41162109 336.29638672 C2542.44236072 305.01170377 2542.45955244 273.72705285 2542.45769465 242.44235384 C2542.45754539 239.10461148 2542.45744798 235.76686911 2542.45738602 232.42912674 C2542.45736271 231.60731282 2542.4573394 230.78549891 2542.45731538 229.93878154 C2542.45725391 216.72954391 2542.47001057 203.52034868 2542.48725055 190.31112365 C2542.50422725 177.02862827 2542.50616494 163.74619474 2542.4930319 150.4636945 C2542.48565624 142.57960153 2542.48925912 134.69569683 2542.50891658 126.81162392 C2542.52237326 120.91467291 2542.51476815 115.01786803 2542.49917014 109.12091835 C2542.4961015 106.74275059 2542.49972738 104.36456231 2542.51089029 101.98641877 C2542.58002782 86.20676465 2541.99396457 71.09931408 2534.4375 56.8125 C2534.09944336 56.16015381 2533.76138672 55.50780762 2533.41308594 54.83569336 C2523.49993444 36.55859812 2507.34626641 25.04891151 2487.65453532 18.86329662 C2479.38965016 16.56673795 2471.41906736 16.44449431 2462.90243489 16.49975401 C2461.20418125 16.49590686 2459.50593086 16.4903071 2457.80768803 16.48313269 C2453.14959309 16.46850595 2448.49183613 16.47865954 2443.83375239 16.49293657 C2438.74401653 16.50408117 2433.65432609 16.49188308 2428.56459364 16.48271915 C2419.61274535 16.46981213 2410.66099558 16.47178497 2401.70914698 16.48343093 C2388.30788666 16.50078971 2374.90670376 16.49505383 2361.50543964 16.48481643 C2338.66586235 16.46804576 2315.82633463 16.47024921 2292.98675919 16.48280334 C2269.83791005 16.49546637 2246.6890836 16.4994069 2223.5402317 16.49268913 C2222.8100943 16.4924813 2222.07995689 16.49227347 2221.32769411 16.49205934 C2214.63641832 16.49015296 2207.94514256 16.48815514 2201.25386684 16.4860477 C2184.47482141 16.48077205 2167.6957758 16.47687156 2150.91672981 16.47389781 C2150.14785241 16.47376086 2149.37897502 16.4736239 2148.58679831 16.47348279 C2110.68400845 16.46686036 2072.78122368 16.47543721 2034.87843513 16.48538399 C2021.5351217 16.48887959 2008.19180826 16.49235208 1994.84849477 16.49562955 C1993.60425841 16.49593592 1993.60425841 16.49593592 1992.33488597 16.49624849 C1953.90180198 16.50564966 1915.46871974 16.50579607 1877.03563487 16.50380415 C1873.68270848 16.5036324 1870.32978209 16.50347141 1866.97685571 16.50331043 C1853.50148797 16.50266251 1840.02612023 16.50197056 1826.5507525 16.5012076 C1788.01778753 16.49902593 1749.4848226 16.49818808 1710.95185757 16.4984808 C1710.09387559 16.49848683 1709.23589361 16.49849285 1708.35191218 16.49849906 C1652.78334638 16.49891029 1597.21478302 16.50526048 1541.6462183 16.51603794 C1540.31547594 16.51629541 1540.31547594 16.51629541 1538.9578499 16.51655807 C1509.24196009 16.52231063 1479.52607036 16.52842581 1449.81018063 16.53456772 C1359.94891569 16.55313098 1270.08765675 16.565917 1109.60914603 16.55420172 C1105.09287128 16.55379076 1100.57659652 16.55338339 1096.06032176 16.55297603 C1095.16655134 16.55289541 1094.27278092 16.55281479 1093.35192655 16.55273172 C1090.64462651 16.55248758 1087.93732647 16.55224357 1085.23002643 16.55199958 C1084.3370102 16.55191903 1083.44399398 16.55183849 1082.52391665 16.5517555 C1062.74127352 16.549972 1042.95863038 16.54823434 1023.17598724 16.54658196 C1021.38406517 16.54643211 1019.59214311 16.54628172 1017.80022105 16.5461308 C962.26179222 16.54145334 906.72336451 16.54046483 851.18493557 16.54396725 C850.32723104 16.54402106 849.46952651 16.54407486 848.58583093 16.5441303 C809.22909511 16.54661209 769.87235945 16.55022957 730.51562382 16.55476225 C726.29782873 16.55524674 722.08003365 16.55572514 717.86223856 16.55620308 C716.61120143 16.55634488 716.61120143 16.55634488 715.33489082 16.55648956 C708.60897184 16.55725131 701.88305286 16.558008 695.15713388 16.55876248 C690.96715474 16.55923326 686.77717561 16.5597092 682.58719647 16.56019563 C644.15340751 16.56465494 605.7196199 16.56732977 567.28583074 16.56409192 C566.45690442 16.56402273 565.62797811 16.56395354 564.77393282 16.56388226 C555.59182092 16.56311287 546.40970903 16.56229218 537.22759715 16.56145453 C533.90435149 16.5611519 530.58110584 16.56084998 527.25786018 16.56054878 C526.43715132 16.56047427 525.61644246 16.56039976 524.77086364 16.560323 C486.92077232 16.55690663 449.07068393 16.55542091 411.22059333 16.5648402 C410.45268085 16.56503092 409.68476836 16.56522165 408.89358579 16.56541815 C392.1407691 16.56961544 375.38795279 16.57469742 358.63513663 16.58065046 C351.95381423 16.58301362 345.2724918 16.58527299 338.59116936 16.58750343 C337.49794031 16.58787308 337.49794031 16.58787308 336.38262583 16.58825018 C313.26362862 16.59601963 290.14464425 16.59462332 267.02564704 16.5879374 C243.63363964 16.58121557 220.24166204 16.58487401 196.84965699 16.60120789 C183.53870612 16.61018535 170.22781556 16.61094215 156.91686609 16.59966669 C148.08333736 16.59300176 139.24985704 16.5971589 130.41633554 16.61021818 C125.40456225 16.61732309 120.39291024 16.61975558 115.38114094 16.60888628 C110.82946416 16.59910312 106.27801524 16.60323415 101.72635455 16.61822613 C100.09830056 16.62120184 98.47022744 16.61923412 96.84218901 16.61151725 C73.08338419 16.50685474 51.9329844 22.74738197 35.12890625 40.41796875 Z " fill="#A3A3A3" transform="translate(0,0)"/>
<path d="M0 0 C6.1559883 5.36415603 12.10191712 11.35277132 16.48046875 18.29003906 C16.48046875 19.28003906 16.48046875 20.27003906 16.48046875 21.29003906 C14.42578125 23.01660156 14.42578125 23.01660156 11.60546875 24.91503906 C-11.04288442 40.81831144 -25.28609235 62.81292311 -32.51953125 89.29003906 C-32.89271484 90.6396875 -32.89271484 90.6396875 -33.2734375 92.01660156 C-39.05994945 117.50962624 -32.47906618 146.0439376 -19.20336914 168.07885742 C-14.98289342 174.75461534 -10.01615605 180.62994587 -4.51953125 186.29003906 C-3.97039062 186.90105469 -3.42125 187.51207031 -2.85546875 188.14160156 C6.02252782 197.71934171 18.15173111 204.05668567 29.48046875 210.29003906 C27.67888119 217.46920834 25.50275448 224.25672469 22.54296875 231.04003906 C21.96470337 232.37252686 21.96470337 232.37252686 21.37475586 233.73193359 C14.49825848 249.28575432 6.73200651 264.41162745 -3.11669922 278.29833984 C-4.72408684 280.58046101 -6.29565694 282.88543095 -7.8671875 285.19238281 C-14.5965826 295.01905475 -21.48162063 304.49226688 -29.51953125 313.29003906 C-29.96893066 313.7832666 -30.41833008 314.27649414 -30.88134766 314.78466797 C-42.51918811 327.41331428 -57.91755509 337.66957579 -75.515625 338.52832031 C-94.31252467 339.00708728 -109.65570124 332.49771065 -126.78149414 325.37158203 C-153.59636134 314.77953017 -179.85592746 320.76665872 -205.37329102 331.31665039 C-216.35244576 335.82293283 -226.5867225 338.87429073 -238.51953125 338.79003906 C-239.47577393 338.78431885 -240.4320166 338.77859863 -241.41723633 338.77270508 C-249.01392109 338.58089896 -254.9300003 337.20382108 -261.51953125 333.29003906 C-262.85757813 332.56300781 -262.85757813 332.56300781 -264.22265625 331.82128906 C-313.42391696 303.14398282 -342.23652778 233.69733932 -356.0234375 181.74707031 C-358.99089762 170.05626372 -361.0446901 158.2571757 -362.51953125 146.29003906 C-362.61524414 145.5781543 -362.71095703 144.86626953 -362.80957031 144.1328125 C-363.85109193 135.43106738 -363.76328502 126.66621859 -363.76953125 117.91503906 C-363.77020599 117.06622162 -363.77088074 116.21740417 -363.77157593 115.34286499 C-363.75568898 102.76470472 -363.36316552 90.59412003 -360.51953125 78.29003906 C-360.34260742 77.49694336 -360.16568359 76.70384766 -359.98339844 75.88671875 C-351.90864203 40.47772649 -332.68574354 9.3522632 -301.52734375 -10.32324219 C-284.6808608 -20.55589012 -265.75803017 -26.8823572 -245.95703125 -26.89746094 C-244.73016602 -26.91583008 -244.73016602 -26.91583008 -243.47851562 -26.93457031 C-231.64484357 -26.96202663 -220.91133862 -24.54540494 -209.83203125 -20.52246094 C-208.71151367 -20.12534912 -207.59099609 -19.7282373 -206.43652344 -19.3190918 C-198.27432282 -16.40510444 -190.17665751 -13.33587307 -182.12890625 -10.12011719 C-166.47049218 -4.00249004 -154.6131912 -6.84781351 -139.51953125 -12.70996094 C-138.49762695 -13.10634766 -137.47572266 -13.50273437 -136.42285156 -13.91113281 C-134.19680674 -14.77626825 -131.97089818 -15.64175436 -129.74511719 -16.50756836 C-128.05563965 -17.16462769 -128.05563965 -17.16462769 -126.33203125 -17.83496094 C-125.21344727 -18.27106689 -124.09486328 -18.70717285 -122.94238281 -19.15649414 C-80.99768623 -35.34888181 -34.55876564 -29.43352497 0 0 Z " fill="#FEFEFE" transform="translate(606.51953125,262.7099609375)"/>
<path d="M0 0 C1.03386841 0.53886841 1.03386841 0.53886841 2.08862305 1.08862305 C7.04972937 3.72588295 11.63038264 6.46820752 15.8125 10.25 C16.68261719 11.02859375 17.55273438 11.8071875 18.44921875 12.609375 C25.31831512 19.09425179 30.31104164 25.88025545 34.8125 34.25 C35.36808594 35.27867187 35.92367188 36.30734375 36.49609375 37.3671875 C40.81928579 46.01357157 42.90182025 54.84357659 44.8125 64.25 C44.9882959 65.00788818 45.1640918 65.76577637 45.34521484 66.54663086 C48.38580809 84.13727301 46.8127857 105.23434588 41.8125 122.25 C41.62526367 122.89904297 41.43802734 123.54808594 41.24511719 124.21679688 C37.32345915 137.3431756 30.91764704 149.03446917 21.8125 159.25 C21.13574219 160.02085937 20.45898438 160.79171875 19.76171875 161.5859375 C8.48774516 173.66372274 -8.564501 182.37807509 -25.20092773 183.44287109 C-44.24936514 183.92696692 -60.67682456 183.82231767 -76.1875 171.25 C-84.07088192 163.48323615 -84.07088192 163.48323615 -86.1875 159.25 C-86.5175 190.6 -86.8475 221.95 -87.1875 254.25 C-100.7175 254.25 -114.2475 254.25 -128.1875 254.25 C-128.5175 169.44 -128.8475 84.63 -129.1875 -2.75 C-117.3075 -2.75 -105.4275 -2.75 -93.1875 -2.75 C-92.25 9.5625 -92.25 9.5625 -91.96118164 13.43481445 C-91.88246826 14.4424585 -91.80375488 15.45010254 -91.72265625 16.48828125 C-91.644104 17.51993408 -91.56555176 18.55158691 -91.48461914 19.61450195 C-91.26823908 22.35437997 -91.26823908 22.35437997 -90.1875 25.25 C-89.73761719 24.56035156 -89.28773437 23.87070312 -88.82421875 23.16015625 C-78.86989651 8.61766945 -63.48591203 -1.96409091 -46.00390625 -5.35546875 C-30.63664158 -6.94410102 -13.93761304 -7.44895983 0 0 Z " fill="#FCFCFC" transform="translate(1180.1875,417.75)"/>
<path d="M0 0 C0.96808594 -0.00773437 1.93617187 -0.01546875 2.93359375 -0.0234375 C21.80798697 0.02723201 37.65480191 7.12481506 51.32421875 19.88671875 C67.2368915 36.57918557 76.50081208 59.35354642 76.73828125 82.39453125 C76.746353 83.16319016 76.75442474 83.93184906 76.76274109 84.72380066 C76.77650616 86.34831545 76.78726182 87.97285823 76.79516602 89.59741211 C76.80658415 91.22119939 76.82687076 92.84495224 76.85668945 94.46850586 C77.32259804 119.93730788 70.58100215 146.15155374 52.67993164 165.0234375 C51.29761295 166.44307809 49.89910946 167.84690447 48.5 169.25 C47.78070312 169.9925 47.06140625 170.735 46.3203125 171.5 C32.16602554 185.17357533 14.36202229 189.53578503 -4.75 189.6875 C-5.82677002 189.6978125 -6.90354004 189.708125 -8.01293945 189.71875 C-25.58877826 189.52506202 -39.27436202 183.24353476 -51.453125 170.80078125 C-53.3351555 168.45542645 -54.14276855 167.18341975 -54.5 164.25 C-55.16 164.25 -55.82 164.25 -56.5 164.25 C-56.5 195.6 -56.5 226.95 -56.5 259.25 C-69.7 259.25 -82.9 259.25 -96.5 259.25 C-96.51030746 256.39678101 -96.52061493 253.54356201 -96.53123474 250.60388184 C-96.62654225 224.33899637 -96.72640045 198.07413082 -96.83111694 171.8092812 C-96.84488379 168.35527614 -96.8586113 164.90127093 -96.87231445 161.44726562 C-96.87504276 160.75973845 -96.87777106 160.07221127 -96.88058204 159.36384994 C-96.92445852 148.28351272 -96.96515957 137.20316606 -97.00465261 126.12281245 C-97.04535586 114.72311686 -97.08961841 103.32344002 -97.13687855 91.92376947 C-97.16326125 85.53351058 -97.18810525 79.14325461 -97.20907402 72.75297546 C-97.22892641 66.71853618 -97.25314678 60.68412908 -97.28049088 54.64971924 C-97.2897125 52.45382788 -97.29743828 50.25792955 -97.30341911 48.06202698 C-97.3453723 33.09810539 -97.80631395 18.19922014 -98.5 3.25 C-86.62 3.25 -74.74 3.25 -62.5 3.25 C-61.51 12.49 -60.52 21.73 -59.5 31.25 C-56.86 27.95 -54.22 24.65 -51.5 21.25 C-37.97209744 6.19063677 -19.85634803 -0.15863927 0 0 Z " fill="#FDFDFD" transform="translate(1358.5,411.75)"/>
<path d="M0 0 C1.39992188 0.62841797 1.39992188 0.62841797 2.828125 1.26953125 C10.78161676 5.21219074 16.77924599 10.78819672 23 17 C23.65871094 17.64710938 24.31742188 18.29421875 24.99609375 18.9609375 C45.25320533 40.38762827 47.93232968 68.7769138 47.15234375 96.83300781 C46.85021078 103.1138875 45.78037421 108.95816783 44 115 C43.64808594 116.24394531 43.29617188 117.48789062 42.93359375 118.76953125 C36.17159975 141.4078849 21.76313276 160.76136223 0.82861328 172.08447266 C-13.19933159 179.10780954 -26.96015048 181.42187907 -42.5625 181.375 C-43.62739655 181.37368576 -43.62739655 181.37368576 -44.71380615 181.37234497 C-68.80886166 181.27417112 -88.11829969 174.01623972 -105.75390625 157.40625 C-125.44539299 136.9631798 -131.41433607 109.51447349 -131.14453125 82.0234375 C-130.65107879 56.14727165 -121.53872748 33.11558962 -103 15 C-101.81470703 13.78376953 -101.81470703 13.78376953 -100.60546875 12.54296875 C-74.96330838 -12.41880263 -31.29379724 -14.14706637 0 0 Z " fill="#FDFDFD" transform="translate(1957,420)"/>
<path d="M0 0 C16.83 0 33.66 0 51 0 C52.876875 5.61 54.75375 11.22 56.6875 17 C57.26846436 18.73378906 57.84942871 20.46757812 58.44799805 22.25390625 C61.13204279 30.28230625 63.75176084 38.32492349 66.25540161 46.41145325 C68.10262661 52.36737241 70.06807668 58.27958483 72.0625 64.1875 C74.44994851 71.30120106 76.77718082 78.42024031 78.94140625 85.60546875 C80.68401885 91.19340363 82.5712312 96.73311883 84.43383789 102.28198242 C86.34697402 107.99675155 88.16347761 113.73082244 89.90625 119.5 C91.37158129 124.18906014 92.93670978 128.84283414 94.5 133.5 C96.72933737 140.14137325 98.88028628 146.79336149 100.90625 153.5 C102.37158129 158.18906014 103.93670978 162.84283414 105.5 167.5 C107.72933737 174.14137325 109.88028628 180.79336149 111.90625 187.5 C113.37158129 192.18906014 114.93670978 196.84283414 116.5 201.5 C118.72620011 208.13202711 120.87853588 214.77321311 122.89453125 221.47265625 C123.8155462 224.41144248 124.77584248 227.32874695 125.76171875 230.24609375 C126.07818359 231.18324219 126.39464844 232.12039063 126.72070312 233.0859375 C127.35202188 234.94800898 127.98726666 236.80875527 128.62695312 238.66796875 C128.91892578 239.5290625 129.21089844 240.39015625 129.51171875 241.27734375 C129.90556763 242.42577759 129.90556763 242.42577759 130.30737305 243.59741211 C131.09880497 246.34273518 131.53029154 249.18174926 132 252 C117.81 252 103.62 252 89 252 C83.67416178 236.20613494 78.47382416 220.37812791 73.39801025 204.50231934 C72.75720515 202.49931983 72.11490934 200.49679664 71.47113037 198.49475098 C70.55835897 195.65414293 69.65141421 192.81174017 68.74609375 189.96875 C68.46838638 189.10735413 68.19067902 188.24595825 67.90455627 187.35845947 C67.65302292 186.56405457 67.40148956 185.76964966 67.14233398 184.95117188 C66.92077133 184.25761597 66.69920868 183.56406006 66.47093201 182.8494873 C66 181 66 181 66 178 C38.94 178.33 11.88 178.66 -16 179 C-21.48933815 196.21405311 -21.48933815 196.21405311 -26.6796875 213.5 C-28.56110263 219.95393107 -30.53804026 226.37915936 -32.50195312 232.80834961 C-32.78232422 233.72624268 -33.06269531 234.64413574 -33.3515625 235.58984375 C-33.62516602 236.48300293 -33.89876953 237.37616211 -34.18066406 238.29638672 C-34.74381527 240.15465145 -35.29733175 242.01585477 -35.84277344 243.87939453 C-36.10864258 244.7867334 -36.37451172 245.69407227 -36.6484375 246.62890625 C-36.88481934 247.44560791 -37.12120117 248.26230957 -37.36474609 249.10375977 C-38 251 -38 251 -39 252 C-42.02977804 252.08871273 -45.03667022 252.1151935 -48.06640625 252.09765625 C-48.97502914 252.0962413 -49.88365204 252.09482635 -50.81980896 252.09336853 C-53.73407221 252.08775193 -56.64825981 252.07519665 -59.5625 252.0625 C-61.53320202 252.05748714 -63.50390524 252.05292386 -65.47460938 252.04882812 C-70.31643559 252.03777711 -75.15820495 252.02050138 -80 252 C-79.40587972 246.76612376 -78.177674 242.02058983 -76.453125 237.0390625 C-76.20004578 236.29022797 -75.94696655 235.54139343 -75.68621826 234.76986694 C-74.87989407 232.38624643 -74.06560405 230.00545955 -73.25 227.625 C-69.94515814 217.94221637 -66.72710362 208.2646676 -63.89085388 198.43328857 C-61.64859582 190.69927029 -59.14912991 183.05250145 -56.64071655 175.40142822 C-55.78261752 172.78384518 -54.92766322 170.16525211 -54.07348633 167.54638672 C-52.91593532 163.99748131 -51.75759028 160.44883696 -50.59863281 156.90039062 C-43.87894859 136.31458082 -37.29133793 115.68568277 -30.6875 95.0625 C-30.34270599 93.98623352 -29.99791199 92.90996704 -29.64266968 91.80108643 C-25.04246182 77.44780186 -25.04246182 77.44780186 -20.53125 63.06640625 C-17.07539143 51.96500807 -13.4292476 40.92477065 -9.8125 29.875 C-9.08128943 27.63805051 -8.35016905 25.40107153 -7.61914062 23.1640625 C-6.28543491 19.08430152 -4.95163309 15.00457237 -3.61645508 10.92529297 C-3.35173904 10.11639618 -3.08702301 9.30749939 -2.81428528 8.47409058 C-1.88378072 5.64688418 -0.94121914 2.82365743 0 0 Z " fill="#FDFDFD" transform="translate(885,345)"/>
<path d="M0 0 C1.04170853 0.00131424 1.04170853 0.00131424 2.10446167 0.00265503 C12.21311088 0.0448663 21.46212275 0.40526589 30.9375 4.375 C32.11570312 4.849375 33.29390625 5.32375 34.5078125 5.8125 C53.5433408 14.36409802 64.8917111 30.49535757 72.2578125 49.53710938 C76.68430946 61.5064589 77.10775162 73.16717773 77.06787109 85.83691406 C77.06243633 87.8991608 77.06788688 89.96119673 77.07421875 92.0234375 C77.07228516 93.97636719 77.07228516 93.97636719 77.0703125 95.96875 C77.06918457 97.15146484 77.06805664 98.33417969 77.06689453 99.55273438 C76.9375 102.375 76.9375 102.375 75.9375 104.375 C36.0075 104.375 -3.9225 104.375 -45.0625 104.375 C-42.69080709 120.97685035 -39.90532774 135.53107247 -26.60546875 146.55859375 C-14.7265714 155.04352043 -1.84024338 157.93566673 12.5625 157.75 C13.69115479 157.74202393 14.81980957 157.73404785 15.98266602 157.72583008 C28.55003893 157.5141559 40.53571014 155.68338711 52.578125 152.0234375 C55.34142485 151.26398754 58.10658438 150.80863736 60.9375 150.375 C67.08361384 171.34935938 67.08361384 171.34935938 66.9375 178.375 C35.48634207 191.14194666 -1.97698163 194.92415724 -34.0625 182.375 C-53.75988757 174.04784094 -68.48989085 158.72650242 -76.9375 139.19140625 C-82.46590698 125.35119294 -84.45399087 112.54340969 -84.375 97.6875 C-84.37317719 96.9784552 -84.37135437 96.2694104 -84.36947632 95.53887939 C-84.32470161 85.20919354 -83.98428529 75.35383927 -81.0625 65.375 C-80.7221875 64.21097656 -80.381875 63.04695313 -80.03125 61.84765625 C-75.74906495 48.75516479 -69.34805395 36.5924375 -60.0625 26.375 C-59.24007812 25.45976562 -58.41765625 24.54453125 -57.5703125 23.6015625 C-47.79058584 13.25489516 -36.59984177 6.68157728 -23.0625 2.375 C-21.92554687 2.00890625 -20.78859375 1.6428125 -19.6171875 1.265625 C-13.2053252 -0.27614995 -6.55625403 -0.02004082 0 0 Z " fill="#FDFDFD" transform="translate(2239.0625,411.625)"/>
<path d="M0 0 C0.8038916 -0.00458221 1.6077832 -0.00916443 2.43603516 -0.0138855 C17.29170296 -0.0473766 31.68056412 1.51557392 45.75 6.5625 C46.50667969 6.81837891 47.26335937 7.07425781 48.04296875 7.33789062 C51.2947281 8.46127818 53.99907897 9.58271931 56.875 11.5 C56.21893867 18.59171055 53.94954482 25.17203687 51.8125 31.9375 C51.24692383 33.75024414 51.24692383 33.75024414 50.66992188 35.59960938 C49.7430528 38.56793693 48.81128172 41.53463069 47.875 44.5 C41.3911966 42.37177069 34.98689582 40.08236089 28.59765625 37.68359375 C19.32650481 34.73589293 10.57989512 34.16157881 0.875 34.1875 C-0.3315625 34.17138672 -1.538125 34.15527344 -2.78125 34.13867188 C-15.17440792 34.13193646 -25.83935442 36.88540072 -35.203125 45.38671875 C-42.27870944 52.95283741 -43.72547888 59.7495544 -43.47265625 70.02734375 C-42.65710665 78.1736763 -39.31490872 85.12244529 -33.125 90.5 C-22.36065112 98.82740056 -10.59242794 104.21344093 1.875 109.5 C27.06715664 120.27678774 51.4773416 132.44910651 63.3515625 158.7734375 C66.60215696 167.43563614 67.33427497 175.51198683 67.375 184.75 C67.38442627 186.36455078 67.38442627 186.36455078 67.39404297 188.01171875 C67.0899652 207.30737194 59.65350549 222.92091711 46.71875 236.81640625 C26.60739737 255.98972937 -2.39406203 260.24665719 -28.9921875 259.72265625 C-50.19230839 259.06654053 -70.74796758 255.77681535 -89.125 244.5 C-86.66820467 233.03495511 -84.07263364 221.55337419 -80.125 210.5 C-76.58239261 211.87616672 -73.12005201 213.39498166 -69.65820312 214.9621582 C-49.15570257 224.16711132 -23.43328592 230.15744658 -1.125 223.5 C6.15826733 220.49371519 12.44990704 217.3740003 17.875 211.5 C18.555625 210.79875 19.23625 210.0975 19.9375 209.375 C25.91024131 200.51222257 27.13263332 191.0023414 25.875 180.5 C22.54573178 167.89002835 14.96758934 160.33163876 4.0703125 153.7890625 C-3.12750497 149.71134394 -10.8615415 146.70969322 -18.50292969 143.57763672 C-44.90780588 132.7255768 -69.06115883 119.90081755 -81.125 92.5 C-81.47820312 91.70335937 -81.83140625 90.90671875 -82.1953125 90.0859375 C-87.0033404 76.7123473 -85.9062999 57.69681544 -80.66796875 44.65234375 C-71.57950933 26.08427602 -57.16699628 13.34422316 -38.125 5.5 C-37.20074219 5.11038086 -37.20074219 5.11038086 -36.2578125 4.71289062 C-24.5318009 0.05838194 -12.43013949 0.02635291 0 0 Z " fill="#FDFDFD" transform="translate(1602.125,341.5)"/>
<path d="M0 0 C0 14.85 0 29.7 0 45 C14.52 45 29.04 45 44 45 C44 55.23 44 65.46 44 76 C29.48 76 14.96 76 0 76 C0.06186057 93.27848012 0.06186057 93.27848012 0.16015625 110.55664062 C0.2083634 117.6117369 0.25245616 124.66667907 0.27099609 131.72192383 C0.28622651 137.41500379 0.32078506 143.10767845 0.36830902 148.80057716 C0.38305715 150.96405308 0.39103721 153.12758688 0.39188385 155.2911129 C0.02846486 175.50194463 0.02846486 175.50194463 9 193 C16.11627847 198.88526347 25.51149566 197.41849846 34.125 196.76171875 C36.42295204 196.54302161 38.71080805 196.29537961 41 196 C42.02250405 202.69860922 42.11756273 209.2315198 42.0625 216 C42.05798828 217.06089844 42.05347656 218.12179687 42.04882812 219.21484375 C42.03713843 221.80995598 42.02075276 224.40494709 42 227 C26.86044163 233.17768101 4.24711314 233.93352177 -11.03515625 227.77734375 C-23.90744335 221.7957977 -31.33267234 213.69878856 -36.25 200.375 C-40.73266494 185.2974724 -40.27164986 169.69414273 -40.1953125 154.125 C-40.1915737 151.86100389 -40.18873083 149.59700613 -40.18673706 147.33300781 C-40.17916884 141.42797226 -40.15958033 135.52303803 -40.1373291 129.61804199 C-40.11672241 123.57089609 -40.10770391 117.52373353 -40.09765625 111.4765625 C-40.07632681 99.65099042 -40.04120169 87.82551956 -40 76 C-48.91 76 -57.82 76 -67 76 C-67 65.77 -67 55.54 -67 45 C-58.09 45 -49.18 45 -40 45 C-40 34.11 -40 23.22 -40 12 C-31.00104058 8.62539022 -31.00104058 8.62539022 -27.1953125 7.5 C-26.36386719 7.2525 -25.53242187 7.005 -24.67578125 6.75 C-23.83402344 6.5025 -22.99226563 6.255 -22.125 6 C-21.29097656 5.7525 -20.45695312 5.505 -19.59765625 5.25 C-17.92010757 4.7521803 -16.24205037 4.25607083 -14.56347656 3.76171875 C-12.77654771 3.2307456 -10.99221298 2.69099705 -9.20996094 2.14453125 C-8.3130957 1.86996094 -7.41623047 1.59539062 -6.4921875 1.3125 C-5.67862793 1.06113281 -4.86506836 0.80976563 -4.02685547 0.55078125 C-2 0 -2 0 0 0 Z " fill="#FBFBFB" transform="translate(1759,370)"/>
<path d="M0 0 C2.09070031 0.00316183 4.17998039 -0.02042886 6.27050781 -0.0456543 C25.71754273 -0.13703311 44.41695821 3.53123819 58.84082031 17.34301758 C70.03125126 29.019071 74.31643404 43.63410049 74.16113281 59.50317383 C74.15355957 60.59525146 74.14598633 61.6873291 74.13818359 62.8125 C73.78236021 80.40757662 68.85237361 95.96083053 56.41503906 108.84301758 C45.98044856 118.42951365 32.62356873 123.29864843 18.72363281 125.31567383 C17.58152344 125.49356445 16.43941406 125.67145508 15.26269531 125.85473633 C9.35206372 126.57685593 3.41897676 126.46038215 -2.52636719 126.44067383 C-3.6775 126.44454102 -4.82863281 126.4484082 -6.01464844 126.45239258 C-7.72974609 126.45045898 -7.72974609 126.45045898 -9.47949219 126.44848633 C-10.49688477 126.4473584 -11.51427734 126.44623047 -12.5625 126.44506836 C-17.81078258 126.26221339 -23.04303999 125.75178443 -28.27636719 125.31567383 C-28.27636719 84.72567383 -28.27636719 44.13567383 -28.27636719 2.31567383 C-18.52226261 0.92223032 -9.6992742 -0.03049376 0 0 Z " fill="#FBFBFB" transform="translate(856.2763671875,129.684326171875)"/>
<path d="M0 0 C1.25952454 1.06940762 2.4887639 2.17536918 3.6875 3.3125 C4.34105469 3.91449219 4.99460937 4.51648438 5.66796875 5.13671875 C20.76267111 20.46499484 23.94337725 40.93225953 23.9362793 61.46948242 C23.85775255 69.53965926 23.35771971 76.64362899 20.6875 84.3125 C20.32398438 85.40304687 19.96046875 86.49359375 19.5859375 87.6171875 C14.39085443 102.12990344 6.89507891 114.44407706 -7.3125 121.3125 C-17.01353177 125.48583347 -27.92917743 125.83790142 -37.91015625 122.34375 C-52.8949652 115.91124665 -60.19602217 104.86354041 -66.3125 90.3125 C-73.82817418 70.32123985 -73.89140352 46.0094093 -66.0625 26.0625 C-59.76057892 12.25829191 -52.53072721 1.64025157 -38.3125 -4.6875 C-25.87263243 -9.04145365 -10.91356165 -7.65228249 0 0 Z " fill="#010101" transform="translate(1938.3125,447.6875)"/>
<path d="M0 0 C7.09406194 5.18019631 11.43388602 11.21355094 15.4375 18.9375 C15.93165405 19.87118408 15.93165405 19.87118408 16.43579102 20.82373047 C21.69992887 31.50814016 22.72274212 42.80920517 22.625 54.5625 C22.61815186 55.83343506 22.61130371 57.10437012 22.60424805 58.41381836 C22.44132886 67.96259135 21.43390704 76.25585591 18.1875 85.25 C17.82527344 86.32894531 17.46304687 87.40789062 17.08984375 88.51953125 C13.09746944 99.27864167 6.07250599 108.28408948 -3.8125 114.25 C-15.38445978 119.4709117 -28.16552964 121.55192241 -40.41015625 117.28515625 C-52.1143781 112.24187367 -59.8691377 105.08336352 -65.48828125 93.66796875 C-65.92527344 92.54003906 -66.36226562 91.41210938 -66.8125 90.25 C-67.08247803 89.56671631 -67.35245605 88.88343262 -67.63061523 88.17944336 C-70.65742195 79.15292893 -70.30001612 69.79964726 -70.25854492 60.39038086 C-70.25004832 57.45419832 -70.27884496 54.51997511 -70.31054688 51.58398438 C-70.37350635 34.81938459 -68.05842367 18.85606256 -56.1875 6 C-40.32027056 -8.80129272 -18.47452164 -11.38329111 0 0 Z " fill="#010101" transform="translate(1371.8125,450.75)"/>
<path d="M0 0 C13.31241352 7.05992692 20.09854649 19.24732288 24.50317383 33.02783203 C30.69891129 53.84404655 28.32703927 79.85949309 18.0625 99 C10.65361351 111.09321472 1.48104785 118.16776992 -12.42578125 121.6171875 C-23.80246072 123.35111376 -35.7731581 122.04332761 -45.3125 115.1875 C-46.53759702 114.14437346 -47.74679493 113.08221861 -48.9375 112 C-49.51757812 111.54496094 -50.09765625 111.08992187 -50.6953125 110.62109375 C-58.00835172 104.34106231 -63.29516186 93.42983882 -64.9375 84 C-65.04195967 82.42353518 -65.10486055 80.84387607 -65.13037109 79.26416016 C-65.14643402 78.35195709 -65.16249695 77.43975403 -65.17904663 76.49990845 C-65.22414391 72.31293933 -65.26461519 68.12612128 -65.28759766 63.93896484 C-65.3040655 61.74744988 -65.33123215 59.55598655 -65.36962891 57.36474609 C-65.66079838 40.62629944 -65.10267297 25.51012577 -53.9375 12 C-53.38707031 11.31550781 -52.83664062 10.63101562 -52.26953125 9.92578125 C-39.00720644 -4.92010473 -17.78468688 -7.79112444 0 0 Z " fill="#010101" transform="translate(1157.9375,448)"/>
<path d="M0 0 C0 12.87 0 25.74 0 39 C-9.875 38.8125 -9.875 38.8125 -12.92138672 38.72973633 C-24.3486366 38.62629714 -33.56867338 41.98276282 -41.94140625 49.81640625 C-52.96483275 61.60171104 -55.1106708 75.93521915 -55.20532227 91.45507812 C-55.21522186 92.47061768 -55.22512146 93.48615723 -55.23532104 94.5324707 C-55.26672877 97.865374 -55.29161097 101.19829151 -55.31640625 104.53125 C-55.3369937 106.85152543 -55.35799063 109.17179725 -55.37937927 111.49206543 C-55.43441497 117.58126906 -55.48390544 123.6705055 -55.53222656 129.75976562 C-55.58257714 135.98049824 -55.63819226 142.20118357 -55.69335938 148.421875 C-55.80071448 160.61454433 -55.90172237 172.80725412 -56 185 C-69.2 185 -82.4 185 -96 185 C-96.02505615 180.23280518 -96.0501123 175.46561035 -96.07592773 170.55395508 C-96.15969183 154.74017191 -96.24829421 138.92641851 -96.33933926 123.11267567 C-96.39438148 113.53207834 -96.44781233 103.9514773 -96.49731445 94.37084961 C-96.54051524 86.01060046 -96.58687722 77.65037551 -96.63687855 69.29016417 C-96.66319432 64.87240925 -96.68803373 60.45465823 -96.70907402 56.03687477 C-96.79431842 38.33866411 -96.8826301 20.6705722 -98 3 C-93.03376995 2.97635375 -88.06759033 2.95716352 -83.10131836 2.94506836 C-81.41055684 2.9400281 -79.71979971 2.93319595 -78.02905273 2.92456055 C-75.60399293 2.91248143 -73.17899056 2.90676877 -70.75390625 2.90234375 C-69.61327477 2.89460182 -69.61327477 2.89460182 -68.44960022 2.88670349 C-66.6326743 2.88650762 -64.81586873 2.93802723 -63 3 C-61.04382005 4.95617995 -61.60925405 8.63423409 -61.46484375 11.31640625 C-61.42186661 12.04746078 -61.37888947 12.77851532 -61.33460999 13.53172302 C-61.19786155 15.87508604 -61.06761458 18.21876017 -60.9375 20.5625 C-60.84612993 22.14781112 -60.75433859 23.73309801 -60.66210938 25.31835938 C-60.43651044 29.21197499 -60.21674303 33.10588177 -60 37 C-59.5570459 36.06478516 -59.1140918 35.12957031 -58.65771484 34.16601562 C-51.16006133 18.58858531 -40.72641747 6.95191862 -24 1 C-16.14854796 -0.57029041 -8.00694143 0 0 0 Z " fill="#FCFCFC" transform="translate(2136,412)"/>
<path d="M0 0 C6.27 0 12.54 0 19 0 C19.33 42.9 19.66 85.8 20 130 C14.06 130 8.12 130 2 130 C1.67 125.38 1.34 120.76 1 116 C0.154375 117.216875 -0.69125 118.43375 -1.5625 119.6875 C-7.00563018 126.86887921 -13.12724044 130.3522018 -22 132 C-31.48431151 133.03972399 -39.95484397 131.73341547 -47.734375 125.9765625 C-58.02339122 117.05738572 -63.23124846 107.66918669 -65 94 C-65.72751938 77.97765457 -64.17927272 63.60645528 -54.078125 50.5078125 C-46.56198544 42.54070457 -38.48113438 38.99099901 -27.66674805 38.65673828 C-19.59413633 38.54790913 -12.54484517 38.61896095 -6 44 C-4.35 45.98 -2.7 47.96 -1 50 C-0.67 33.5 -0.34 17 0 0 Z " fill="#FCFCFC" transform="translate(1654,125)"/>
<path d="M0 0 C0.7940625 0.42410156 1.588125 0.84820312 2.40625 1.28515625 C12.2557714 7.17845322 18.34743281 16.95223492 21.54418945 27.85620117 C24.77429789 43.04826449 21.9350117 58.81263141 13.62109375 71.75 C8.56271918 78.77078013 2.98001883 82.70914631 -5 86 C-5.77085937 86.32097656 -6.54171875 86.64195312 -7.3359375 86.97265625 C-17.70182817 90.67476006 -29.91499279 90.45970168 -40 86 C-52.51648763 80.01968738 -59.19073698 70.84688945 -64 58 C-67.17082061 44.39862846 -66.42958043 28.47083776 -59.45703125 16.30859375 C-46.95699175 -2.88483075 -20.92280407 -11.50037689 0 0 Z " fill="#FBFBFB" transform="translate(1019,168)"/>
<path d="M0 0 C0.78246094 0.40089844 1.56492187 0.80179688 2.37109375 1.21484375 C12.6168103 7.17567378 18.38880058 17.75429573 21.53271484 28.88623047 C23.48996642 37.73987944 22.9753943 49.46531634 20 58 C19.53980469 59.40958984 19.53980469 59.40958984 19.0703125 60.84765625 C15.52705541 70.51219541 9.41882783 78.90174434 0.26953125 83.97265625 C-11.7045684 89.39294577 -25.00760714 91.56630491 -37.66796875 87.03125 C-49.03255706 82.00570341 -56.52667703 74.83179699 -61.9921875 63.65234375 C-66.85939077 50.8429212 -67.06560223 34.65293166 -62.32421875 21.79296875 C-56.70036333 9.93144478 -48.08791379 1.97495772 -36 -3 C-25.02994565 -6.21613194 -9.9953128 -5.46913342 0 0 Z " fill="#FBFBFB" transform="translate(1822,168)"/>
<path d="M0 0 C0.80566406 0.598125 1.61132812 1.19625 2.44140625 1.8125 C10.05471609 8.32158933 15.30432018 19.19628729 16.19091797 29.14160156 C16.61543523 37.45227561 16.71674223 46.05158845 14 54 C13.74347656 54.804375 13.48695312 55.60875 13.22265625 56.4375 C9.68098423 66.40890277 3.18164069 74.63738957 -6 80 C-17.9457665 85.44870412 -30.98887888 87.57301354 -43.66796875 83.03125 C-55.85511238 77.64196036 -64.0795231 69.4728368 -69 57 C-71.25726166 50.75278991 -71.36678266 44.85673735 -71.375 38.25 C-71.41173828 36.71859375 -71.41173828 36.71859375 -71.44921875 35.15625 C-71.49853015 22.20378952 -66.44222573 11.83858798 -57.875 2.3125 C-42.91496663 -12.01306767 -16.09662256 -12.26409338 0 0 Z " fill="#FBFBFB" transform="translate(1449,172)"/>
<path d="M0 0 C1.0326384 30.55844748 -8.38055827 58.86349517 -28.625 82 C-41.81421107 95.80266274 -63.17282217 110.32628631 -83.07373047 111.07836914 C-85.34168616 111.09797611 -87.60710984 111.08748523 -89.875 111.0625 C-90.65875 111.05798828 -91.4425 111.05347656 -92.25 111.04882812 C-94.16670014 111.03714093 -96.08336048 111.01920908 -98 111 C-98.86262477 92.28583485 -95.5513498 75.70334723 -87 59 C-86.52771973 58.07380859 -86.52771973 58.07380859 -86.04589844 57.12890625 C-81.63178478 48.63297234 -76.39893756 41.12764219 -70 34 C-69.39929688 33.31679687 -68.79859375 32.63359375 -68.1796875 31.9296875 C-51.69538058 14.3036104 -24.47100358 -0.48676499 0 0 Z " fill="#FDFDFD" transform="translate(536,118)"/>
<path d="M0 0 C6.6 0 13.2 0 20 0 C21.1597078 4.05897732 22.2888344 8.03927285 23.26171875 12.1328125 C23.49020508 13.09010254 23.71869141 14.04739258 23.95410156 15.03369141 C24.19612305 16.05382324 24.43814453 17.07395508 24.6875 18.125 C25.21729012 20.34378768 25.74724515 22.562536 26.27734375 24.78125 C26.55562012 25.94785156 26.83389648 27.11445313 27.12060547 28.31640625 C28.6574968 34.75411208 30.2022015 41.18991049 31.75 47.625 C32.04350342 48.85105957 32.33700684 50.07711914 32.6394043 51.34033203 C33.98451717 56.92987648 35.352287 62.49146928 37 68 C37.16081055 67.34104736 37.32162109 66.68209473 37.48730469 66.00317383 C40.36785631 54.23749703 43.24205045 42.52162554 47 31 C48.02657013 27.79348218 49.04508691 24.58443347 50.0625 21.375 C50.32184326 20.5600708 50.58118652 19.7451416 50.84838867 18.90551758 C52.53175037 13.58432323 54.08350599 8.2467946 55.45703125 2.8359375 C56 1 56 1 57 0 C59.69654854 -0.07319621 62.36691458 -0.09242537 65.0625 -0.0625 C65.82111328 -0.05798828 66.57972656 -0.05347656 67.36132812 -0.04882812 C69.24091871 -0.0370068 71.12046899 -0.01907078 73 0 C76.47608363 9.87616702 79.32281125 19.91195791 82.15283203 29.98779297 C83.05412614 33.19245198 83.96241358 36.39508424 84.87109375 39.59765625 C85.49768788 41.81502166 86.12399505 44.03246818 86.75 46.25 C87.04366455 47.28471436 87.3373291 48.31942871 87.63989258 49.38549805 C88.92014525 53.94133214 90.14008268 58.48325129 91.140625 63.109375 C91.78340085 66.76994618 91.78340085 66.76994618 93 69 C93.11102051 68.28239502 93.22204102 67.56479004 93.33642578 66.82543945 C94.5562262 59.20076368 96.10996745 51.70317672 97.875 44.1875 C98.14038574 43.04821045 98.40577148 41.9089209 98.67919922 40.73510742 C100.62590727 32.44123393 102.73777682 24.21346592 105 16 C105.36786549 14.6007795 105.7336656 13.20101475 106.09765625 11.80078125 C106.27989746 11.10299561 106.46213867 10.40520996 106.64990234 9.6862793 C107.15707095 7.74167234 107.66257311 5.79663099 108.16796875 3.8515625 C109 1 109 1 110 0 C111.41570123 -0.08651611 112.835595 -0.10704904 114.25390625 -0.09765625 C115.53491211 -0.09282227 115.53491211 -0.09282227 116.84179688 -0.08789062 C118.18854492 -0.07532227 118.18854492 -0.07532227 119.5625 -0.0625 C120.46419922 -0.05798828 121.36589844 -0.05347656 122.29492188 -0.04882812 C124.53001634 -0.03700223 126.76496493 -0.01968245 129 0 C126.90789924 9.02388995 124.26600705 17.81727724 121.45386887 26.63523674 C120.69389844 29.01827307 119.93843591 31.4027 119.18399048 33.78749084 C117.85578163 37.98346906 116.52373751 42.17821758 115.19036865 46.37255859 C113.04913055 53.10834647 110.91113209 59.84515171 108.77824783 66.58358955 C108.0354663 68.92689564 107.28937692 71.26913068 106.5430603 73.61131287 C106.0876462 75.0480403 105.63236748 76.48481067 105.17724609 77.92163086 C104.77992279 79.1711705 104.38259949 80.42071014 103.97323608 81.70811462 C102.87126041 85.25395276 102.87126041 85.25395276 102 90 C95.73 90 89.46 90 83 90 C82.49210937 88.34355469 81.98421875 86.68710938 81.4609375 84.98046875 C80.76564327 82.71614022 80.07032935 80.45181774 79.375 78.1875 C78.82912231 76.40629761 78.82912231 76.40629761 78.2722168 74.58911133 C76.65028901 69.30885509 75.02441556 64.03185227 73.30859375 58.78125 C69.56862354 47.32012801 66.63157829 35.76439127 64 24 C63.80422363 24.9132605 63.80422363 24.9132605 63.60449219 25.8449707 C59.14413531 46.48876777 59.14413531 46.48876777 55.95703125 54.5390625 C53.99431183 59.58605529 52.55176964 64.81505997 51 70 C50.47149059 71.75785352 49.94283416 73.51566285 49.4140625 75.2734375 C47.93893226 80.18116552 46.46850845 85.09028676 45 90 C38.73 90 32.46 90 26 90 C22.63268062 79.89804186 22.63268062 79.89804186 21.38671875 75.5390625 C20.97353394 74.10421509 20.97353394 74.10421509 20.55200195 72.64038086 C20.26671631 71.64530518 19.98143066 70.65022949 19.6875 69.625 C17.49466037 62.02856459 15.23232219 54.46471144 12.8125 46.9375 C10.69363459 40.33364556 8.81075239 33.7058832 7.078125 26.98828125 C5.53720835 21.14639432 3.72313903 15.37997427 1.9296875 9.61157227 C1.67960937 8.79615967 1.42953125 7.98074707 1.171875 7.140625 C0.9459668 6.41391602 0.72005859 5.68720703 0.48730469 4.93847656 C0 3 0 3 0 0 Z " fill="#F9F9F9" transform="translate(1061,165)"/>
<path d="M0 0 C38.25465839 0 38.25465839 0 50.04296875 10.88671875 C59.07463957 20.68868133 61.35531558 31.28799949 61.3125 44.3125 C61.32861328 45.28123047 61.34472656 46.24996094 61.36132812 47.24804688 C61.369392 59.33580176 57.69416525 69.52410719 51.3125 79.6875 C43.00400828 87.99599172 33.46117124 92.08980479 22 94 C14.74 94 7.48 94 0 94 C0 62.98 0 31.96 0 0 Z " fill="#010101" transform="translate(848,146)"/>
<path d="M0 0 C6.6 0 13.2 0 20 0 C20.495 26.235 20.495 26.235 21 53 C23.31 50.36 25.62 47.72 28 45 C34.4106893 40.54039005 39.49825059 39.54345954 47.125 39.4375 C48.2528894 39.41526367 48.2528894 39.41526367 49.40356445 39.39257812 C56.95563954 39.53152771 63.65184596 42.65184596 69 48 C76.96372646 59.05170202 78.45254202 69.36308193 78.29296875 82.7578125 C78.28736035 84.15599101 78.28309615 85.5541755 78.28010559 86.95236206 C78.26875445 90.59876323 78.23937382 94.2447951 78.20599365 97.89105225 C78.17508037 101.62523404 78.16155525 105.35947661 78.14648438 109.09375 C78.11449242 116.39601968 78.0618069 123.69791065 78 131 C71.4 131 64.8 131 58 131 C57.9906543 129.22955322 57.98130859 127.45910645 57.97167969 125.63500977 C57.93601768 119.75555129 57.88213468 113.87640784 57.81609726 107.99722385 C57.7767524 104.43603864 57.74450109 100.87509587 57.72900391 97.3137207 C57.71082509 93.21005435 57.66081789 89.10729148 57.609375 85.00390625 C57.60814636 83.73793106 57.60691772 82.47195587 57.60565186 81.1676178 C57.48892332 74.06062073 56.92474777 68.08400652 53 62 C47.77454008 57.0233715 44.08737108 56.65133357 37.05078125 56.71875 C31.54169329 57.22663007 28.50029188 59.41861127 24.6875 63.4375 C21.69790553 67.97725457 20.74964037 71.65347065 20.68115234 77.07543945 C20.66128265 78.27630692 20.64141296 79.47717438 20.62094116 80.71443176 C20.60938995 82.00105209 20.59783875 83.28767242 20.5859375 84.61328125 C20.56721402 85.95136189 20.54763973 87.28943087 20.5272522 88.62748718 C20.4760493 92.13726916 20.43636064 95.64708938 20.39910889 99.15704346 C20.35899461 102.74346278 20.30793626 106.3297247 20.2578125 109.91601562 C20.16119364 116.94390101 20.07775661 123.97187692 20 131 C13.4 131 6.8 131 0 131 C0 87.77 0 44.54 0 0 Z " fill="#FAFAFA" transform="translate(2112,124)"/>
<path d="M0 0 C1.63582031 -0.04350586 1.63582031 -0.04350586 3.3046875 -0.08789062 C12.70559399 -0.1609838 21.20320693 1.78899031 28.2734375 8.33984375 C34.39412943 15.87874478 36.94862816 24.21671111 37.08032227 33.75512695 C37.1102401 35.67655266 37.1102401 35.67655266 37.14076233 37.63679504 C37.15774278 39.02478924 37.17462173 40.41278467 37.19140625 41.80078125 C37.21199424 43.22853675 37.23299118 44.65628641 37.25437927 46.08403015 C37.30940953 49.83056895 37.35890227 53.57716101 37.40722656 57.3237915 C37.45758121 61.15145574 37.51319418 64.97904323 37.56835938 68.80664062 C37.67570779 76.30853039 37.77671757 83.81048498 37.875 91.3125 C31.935 91.3125 25.995 91.3125 19.875 91.3125 C19.545 88.0125 19.215 84.7125 18.875 81.3125 C18.215 81.3125 17.555 81.3125 16.875 81.3125 C16.64039063 81.90804687 16.40578125 82.50359375 16.1640625 83.1171875 C13.22341599 88.12519761 6.3930031 91.10619476 0.9375 92.6875 C-7.97776495 94.40956325 -16.1652525 93.90361716 -24.125 89.3125 C-29.67226633 85.21049846 -33.41083895 80.01699972 -35.125 73.3125 C-36.34937745 63.25240897 -34.50341268 55.4794841 -29 47.0625 C-22.36539599 40.71635703 -14.91986048 37.5221904 -6.125 35.3125 C-4.908125 34.920625 -3.69125 34.52875 -2.4375 34.125 C3.78200366 32.56690488 10.50487631 33.16320023 16.875 33.3125 C16.04797509 25.7939133 16.04797509 25.7939133 12.5625 19.25 C7.52193133 15.61610166 3.00674796 14.89703931 -3.125 14.875 C-4.23862915 14.86919922 -4.23862915 14.86919922 -5.37475586 14.86328125 C-12.68510809 15.01373549 -18.54395584 17.10781762 -25.125 20.3125 C-25.8237693 18.54608317 -26.50866583 16.77417336 -27.1875 15 C-27.57035156 14.01386719 -27.95320313 13.02773437 -28.34765625 12.01171875 C-29.125 9.3125 -29.125 9.3125 -28.125 6.3125 C-25.54296875 4.9609375 -25.54296875 4.9609375 -22.3125 3.6875 C-21.25417969 3.26210937 -20.19585938 2.83671875 -19.10546875 2.3984375 C-12.69262317 0.06190923 -6.78891834 0.05893158 0 0 Z " fill="#FAFAFA" transform="translate(1523.125,163.6875)"/>
<path d="M0 0 C10.36401474 6.38244361 16.20759967 15.89289869 19.125 27.5625 C19.125 34.4925 19.125 41.4225 19.125 48.5625 C-0.675 48.5625 -20.475 48.5625 -40.875 48.5625 C-37.39277727 62.84120425 -37.39277727 62.84120425 -27.75 71.4375 C-17.52605834 76.21174303 -3.46327158 74.38466577 7.125 71.5625 C8.78992106 71.22055446 10.45624266 70.88520395 12.125 70.5625 C12.49144578 72.12216592 12.84260862 73.68542651 13.1875 75.25 C13.38472656 76.12011719 13.58195312 76.99023438 13.78515625 77.88671875 C14.14532279 80.72251276 13.83409969 82.81039982 13.125 85.5625 C11.79537928 86.05187429 10.46100575 86.52833581 9.125 87 C8.3825 87.26683594 7.64 87.53367187 6.875 87.80859375 C-6.2883693 91.41730153 -25.82145282 92.42898279 -37.875 85.5625 C-38.67808594 85.11519531 -39.48117188 84.66789062 -40.30859375 84.20703125 C-48.35097591 79.28123725 -53.11737997 73.11244701 -56.875 64.5625 C-57.266875 63.716875 -57.65875 62.87125 -58.0625 62 C-62.20824725 49.56275825 -61.14232989 33.37503272 -55.875 21.5625 C-45.54209913 1.27146668 -21.90561421 -10.20570443 0 0 Z " fill="#FBFBFB" transform="translate(2278.875,166.4375)"/>
<path d="M0 0 C1.0725 0.7425 2.145 1.485 3.25 2.25 C4.11625 2.78625 4.9825 3.3225 5.875 3.875 C13.52519607 11.52519607 17.36037591 21.46551731 17.59057617 32.14672852 C17.59010516 34.80875229 17.5740396 37.46739008 17.54296875 40.12890625 C17.53736236 41.55093434 17.5330972 42.97296828 17.53010559 44.39500427 C17.51873869 48.10882008 17.48934372 51.82227494 17.45599365 55.53594971 C17.42511511 59.33706787 17.41156255 63.13824526 17.39648438 66.93945312 C17.36446445 74.37648444 17.31176527 81.81314533 17.25 89.25 C10.65 89.25 4.05 89.25 -2.75 89.25 C-2.7593457 87.44402344 -2.76869141 85.63804687 -2.77832031 83.77734375 C-2.81395367 77.7860939 -2.86781831 71.79523608 -2.93390274 65.80426025 C-2.97328102 62.1746652 -3.00551619 58.54530923 -3.02099609 54.91552734 C-3.03622717 51.40740773 -3.07078433 47.89994583 -3.11830902 44.39212036 C-3.14019599 42.41377797 -3.14246818 40.43524967 -3.14434814 38.45678711 C-3.26046369 31.26877233 -3.79832935 26.32725922 -7.75 20.25 C-13.07163436 15.30848238 -16.66066757 14.89621686 -23.76953125 14.97265625 C-29.16932025 15.47512679 -32.04298127 18.33197767 -35.5 22.1875 C-38.93688347 26.86548028 -39.9945835 30.45341549 -40.06884766 36.23364258 C-40.08871735 37.41448929 -40.10858704 38.595336 -40.12905884 39.81196594 C-40.14638565 41.70908577 -40.14638565 41.70908577 -40.1640625 43.64453125 C-40.18342865 44.94702316 -40.2027948 46.24951508 -40.2227478 47.59147644 C-40.27394518 51.0420735 -40.31363676 54.49270944 -40.35089111 57.94348145 C-40.39100888 61.46957926 -40.44206562 64.99551708 -40.4921875 68.52148438 C-40.58879982 75.43087898 -40.67223937 82.34036777 -40.75 89.25 C-47.35 89.25 -53.95 89.25 -60.75 89.25 C-60.75 59.55 -60.75 29.85 -60.75 -0.75 C-55.14 -0.75 -49.53 -0.75 -43.75 -0.75 C-43.09 3.54 -42.43 7.83 -41.75 12.25 C-40.780625 11.033125 -39.81125 9.81625 -38.8125 8.5625 C-29.94735094 -1.59998795 -12.57315202 -6.16568032 0 0 Z " fill="#FAFAFA" transform="translate(1933.75,165.75)"/>
<path d="M0 0 C8.30640058 5.08963616 12.99938393 12.57237902 15.85081482 21.72857666 C16.44719653 24.66268715 16.43182962 27.42591826 16.42602539 30.42089844 C16.42591209 32.37246857 16.42591209 32.37246857 16.42579651 34.36346436 C16.42069024 35.77876829 16.41547425 37.19407184 16.41015625 38.609375 C16.40829035 40.06097363 16.40686726 41.51257288 16.40586853 42.96417236 C16.40205688 46.77819569 16.39223815 50.59218073 16.38116455 54.40618896 C16.37092135 58.30073529 16.36636468 62.19528783 16.36132812 66.08984375 C16.35061465 73.72658195 16.33302882 81.36328072 16.3125 89 C9.7125 89 3.1125 89 -3.6875 89 C-3.70151855 86.2455957 -3.70151855 86.2455957 -3.71582031 83.43554688 C-3.75145036 77.3445249 -3.80531302 71.25387359 -3.87140274 65.16310883 C-3.91078476 61.47297987 -3.94301814 57.78308622 -3.95849609 54.09277344 C-3.97372464 50.52630417 -4.00827753 46.96048219 -4.05580902 43.39430237 C-4.0777009 41.38271962 -4.0799684 39.37095392 -4.08184814 37.35925293 C-4.19673156 30.13086814 -4.66983256 25.09312764 -8.6875 19 C-13.79661225 14.74240645 -18.30800642 14.3753835 -24.87890625 14.61328125 C-29.92738551 15.30841261 -32.48695965 17.73085734 -35.875 21.3125 C-40.96816603 28.86443584 -41.15195816 35.19804466 -41.19921875 44.15234375 C-41.21716995 45.40761368 -41.23512115 46.66288361 -41.25361633 47.95619202 C-41.29846047 51.27208993 -41.33083777 54.58762313 -41.35705566 57.90368652 C-41.38698562 61.29595134 -41.43347273 64.68798628 -41.47851562 68.08007812 C-41.56334933 74.71996618 -41.63020522 81.35981952 -41.6875 88 C-47.9575 88 -54.2275 88 -60.6875 88 C-61.0175 58.63 -61.3475 29.26 -61.6875 -1 C-55.7475 -1 -49.8075 -1 -43.6875 -1 C-43.3575 3.29 -43.0275 7.58 -42.6875 12 C-41.78 10.80375 -40.8725 9.6075 -39.9375 8.375 C-30.07481551 -2.64454012 -13.65023161 -6.10613414 0 0 Z " fill="#FBFBFB" transform="translate(1276.6875,166)"/>
<path d="M0 0 C0.66 0 1.32 0 2 0 C2.21092285 0.86987549 2.4218457 1.73975098 2.63916016 2.63598633 C3.4504316 5.96800977 4.26760447 9.29848355 5.08837891 12.62817383 C5.43763407 14.04982349 5.78475235 15.47200039 6.12939453 16.89477539 C11.57006033 39.33552741 19.2907001 61.1199761 26.5637207 83.01708984 C27.77310599 86.66068668 28.9750625 90.30666451 30.17578125 93.953125 C30.54552567 95.06044983 30.91527008 96.16777466 31.29621887 97.30865479 C31.63715073 98.34794128 31.97808258 99.38722778 32.3293457 100.45800781 C32.62879593 101.36222473 32.92824615 102.26644165 33.23677063 103.19805908 C34.10925992 106.40111119 34.53051559 109.71360915 35 113 C12.89 113 -9.22 113 -32 113 C-29.75051584 102.87732127 -29.75051584 102.87732127 -28.18408203 97.98388672 C-27.83677032 96.89179901 -27.48945862 95.7997113 -27.13162231 94.67453003 C-26.76076508 93.52123199 -26.38990784 92.36793396 -26.0078125 91.1796875 C-25.41583007 89.31930548 -24.82385177 87.45892213 -24.23209953 85.59846687 C-23.19967031 82.35626533 -22.16210722 79.11570754 -21.125 75.875 C-14.06728132 54.08166195 -14.06728132 54.08166195 -8 32 C-7.65259948 30.62481183 -7.30441306 29.24982203 -6.95556641 27.875 C-5.87556237 23.60700031 -4.81167095 19.33509013 -3.75 15.0625 C-3.38292495 13.58916469 -3.01573791 12.11585727 -2.6484375 10.64257812 C-1.76434149 7.09537081 -0.88173473 3.5477951 0 0 Z " fill="#030303" transform="translate(908,379)"/>
<path d="M0 0 C10.58661849 6.56439995 15.86099705 16.53369958 19.5625 28.22265625 C20.375 32.47265625 20.375 32.47265625 20.375 43.47265625 C-7.345 43.47265625 -35.065 43.47265625 -63.625 43.47265625 C-63.625 29.53303559 -57.31353771 16.62695863 -47.83984375 6.48046875 C-44.15431278 3.13944068 -40.06672692 0.68265089 -35.625 -1.52734375 C-34.90828125 -1.90117187 -34.1915625 -2.275 -33.453125 -2.66015625 C-23.2190524 -5.79822824 -9.44692468 -4.81739483 0 0 Z " fill="#010101" transform="translate(2257.625,443.52734375)"/>
<path d="M0 0 C0 7.26 0 14.52 0 22 C7.26 22 14.52 22 22 22 C22 26.95 22 31.9 22 37 C14.74 37 7.48 37 0 37 C0.07404127 44.15391878 0.15691448 51.30659723 0.26245117 58.45996094 C0.29566947 60.8925124 0.32371099 63.32514037 0.34643555 65.7578125 C0.38003758 69.25814358 0.43235834 72.75777555 0.48828125 76.2578125 C0.49467117 77.34240753 0.5010611 78.42700256 0.50764465 79.54446411 C0.61441375 85.04957767 0.75885961 89.31872453 4 94 C7.52155964 96.34770643 9.50771843 96.37669614 13.6875 96.625 C16.8121875 96.810625 16.8121875 96.810625 20 97 C20 101.95 20 106.9 20 112 C15.89300106 113.36899965 12.05199052 113.22388777 7.75 113.25 C6.91597656 113.270625 6.08195312 113.29125 5.22265625 113.3125 C-2.16197882 113.35887133 -7.94109891 111.68432449 -13.6484375 106.6484375 C-20.44663557 98.35699361 -20.14477133 87.13952479 -20.09765625 77.0390625 C-20.0962413 75.89335785 -20.09482635 74.7476532 -20.09336853 73.56723022 C-20.0877858 69.91979322 -20.07523641 66.27241835 -20.0625 62.625 C-20.05748277 60.14713631 -20.05292025 57.66927165 -20.04882812 55.19140625 C-20.03782201 49.12758035 -20.0205692 43.0638007 -20 37 C-24.29 37 -28.58 37 -33 37 C-33 32.05 -33 27.1 -33 22 C-28.71 22 -24.42 22 -20 22 C-20 16.72 -20 11.44 -20 6 C-4.57142857 0 -4.57142857 0 0 0 Z " fill="#F9F9F9" transform="translate(2063,143)"/>
<path d="M0 0 C6.6 0 13.2 0 20 0 C20 43.23 20 86.46 20 131 C13.4 131 6.8 131 0 131 C0 87.77 0 44.54 0 0 Z " fill="#FBFBFB" transform="translate(1328,124)"/>
<path d="M0 0 C7.07353172 3.98985059 11.41657567 10.32926791 14.12182617 17.87963867 C15.23223146 22.02595347 15.26072759 26.13119156 15.23046875 30.40234375 C15.22547363 31.3267627 15.22047852 32.25118164 15.21533203 33.20361328 C14.96365043 43.10251091 12.24780343 51.58138728 5.2421875 58.81640625 C0.16869573 63.29995712 -4.7256309 63.7414218 -11.29296875 63.5703125 C-17.02210179 62.76582794 -20.57881355 59.89002583 -24.51953125 55.83984375 C-31.52457931 45.08209138 -32.58863051 33.78557767 -31.26953125 21.15234375 C-29.09602478 12.76495364 -25.26552565 5.27854207 -17.64453125 0.77734375 C-11.99889089 -1.74721618 -5.83301057 -2.17859431 0 0 Z " fill="#020202" transform="translate(1808.26953125,178.84765625)"/>
<path d="M0 0 C6.58977161 4.72599782 10.65992462 11.2316754 12.75 19 C13.17274028 22.2829976 13.22730725 25.50533873 13.1875 28.8125 C13.17992676 29.69325195 13.17235352 30.57400391 13.16455078 31.48144531 C12.90355656 41.81072035 10.06307423 50.47443935 2.75 58 C-1.97932468 62.29164939 -7.07896004 62.67143507 -13.30859375 62.453125 C-18.99224985 61.57755514 -22.52612981 58.72387019 -26.5 54.75 C-33.50283684 43.74554211 -34.31765864 32.76476034 -33.25 20 C-32.39455699 16.29899009 -31.1563853 13.2718585 -29.25 10 C-28.651875 8.906875 -28.05375 7.81375 -27.4375 6.6875 C-20.79742226 -1.47030979 -9.76403446 -5.59554283 0 0 Z " fill="#020202" transform="translate(1431.25,180)"/>
<path d="M0 0 C6.98212138 5.09351478 10.68766316 11.70491919 12.6875 20 C13.10297935 23.49137224 13.16555271 26.92410248 13.125 30.4375 C13.11670166 31.36328857 13.10840332 32.28907715 13.09985352 33.24291992 C12.85196652 43.23338339 10.44726151 50.086538 3.45703125 57.37109375 C-1.63443438 62.0579396 -6.53842847 62.66484633 -13.2734375 62.47265625 C-19.10321061 61.56596917 -23.13215355 58.60657959 -26.87109375 54.13671875 C-28.21411357 52.14809297 -29.28367533 50.16658372 -30.3125 48 C-30.63089844 47.37996094 -30.94929687 46.75992188 -31.27734375 46.12109375 C-35.15829989 36.98206801 -34.79247331 24.1769284 -31.6875 14.875 C-28.61632451 7.88431733 -24.82592768 1.71760396 -17.58203125 -1.37109375 C-11.52070313 -3.05073889 -5.56462459 -3.13874618 0 0 Z " fill="#020202" transform="translate(1007.3125,180)"/>
<path d="M0 0 C5.24938452 3.04593917 9.39865779 7.5495695 11.921875 13.05859375 C14.9527413 25.65384473 14.33943718 41.15111931 7.65234375 52.3359375 C4.63710549 56.52660762 0.60007366 58.99334536 -4.25 60.5 C-11.03882416 61.55771823 -16.66227171 60.546286 -22.25 56.5 C-28.35910139 51.29595067 -31.65357157 44.25054281 -32.47753906 36.30615234 C-33.25268497 24.3840182 -32.63122914 14.6245031 -24.875 5.0625 C-18.10557508 -2.00683615 -9.18175321 -4.01924994 0 0 Z " fill="#030303" transform="translate(1641.25,180.5)"/>
<path d="M0 0 C0.33 0 0.66 0 1 0 C1 25.41 1 50.82 1 77 C-25.73 77 -52.46 77 -80 77 C-80 76.67 -80 76.34 -80 76 C-79.1028125 75.85304688 -78.205625 75.70609375 -77.28125 75.5546875 C-52.49817555 71.09987866 -30.66325026 59.38836928 -15.54296875 38.77734375 C-7.49218482 27.19428975 -2.1307083 13.94269314 0 0 Z " fill="#000000" transform="translate(2559,682)"/>
<path d="M0 0 C0.33 0 0.66 0 1 0 C1.1959375 1.02996094 1.391875 2.05992187 1.59375 3.12109375 C6.48449691 27.06957412 18.77547652 47.33276229 39.25 61.25 C51.6530891 69.37410951 65.24411551 74.32319494 80 76 C80 76.33 80 76.66 80 77 C53.6 77 27.2 77 0 77 C0 51.59 0 26.18 0 0 Z " fill="#000000" transform="translate(0,682)"/>
<path d="M0 0 C25.41 0 50.82 0 77 0 C77 25.08 77 50.16 77 76 C76.67 76 76.34 76 76 76 C75.8040625 75.04222656 75.608125 74.08445312 75.40625 73.09765625 C71.80112626 56.61080989 65.07993143 42.73495264 54 30 C53.30390625 29.19175781 52.6078125 28.38351563 51.890625 27.55078125 C38.01610398 12.60698324 19.50558907 5.30642876 0 1 C0 0.67 0 0.34 0 0 Z " fill="#000000" transform="translate(2483,0)"/>
<path d="M0 0 C25.08 0 50.16 0 76 0 C76 0.33 76 0.66 76 1 C75.00742188 1.21914063 74.01484375 1.43828125 72.9921875 1.6640625 C48.87761662 7.19953415 28.05412806 19.39458349 14.25390625 40.26953125 C7.34592822 51.34162321 3.71287493 63.32868356 1 76 C0.67 76 0.34 76 0 76 C0 50.92 0 25.84 0 0 Z " fill="#000000" transform="translate(0,0)"/>
<path d="M0 0 C0.9144005 19.01953045 0.9144005 19.01953045 -3.5703125 24.59375 C-8.43459099 29.37828622 -12.44804925 32.27798388 -19.375 32.375 C-24.35048044 32.27535753 -27.28299188 31.52639232 -31 28 C-33.84712327 23.5999004 -33.63492881 18.06315026 -33 13 C-30.46908125 7.41088777 -26.37079652 4.62110696 -21 2 C-14.06143772 -0.46965776 -7.30729654 -0.20050509 0 0 Z " fill="#060606" transform="translate(1541,210)"/>
<path d="M0 0 C6.50272512 4.58146542 10.17284038 10.10704085 11.75 17.9375 C11.75 19.5875 11.75 21.2375 11.75 22.9375 C-2.11 22.9375 -15.97 22.9375 -30.25 22.9375 C-28.43347092 13.85485462 -26.87006226 6.85022396 -19.0625 1.4375 C-12.95788341 -1.81829551 -6.56543246 -2.14639138 0 0 Z " fill="#080808" transform="translate(2268.25,178.0625)"/>
</svg>
