<?xml version="1.0" encoding="UTF-8"?>
<svg version="1.1" xmlns="http://www.w3.org/2000/svg" width="2560" height="759">
<path d="M0 0 C844.8 0 1689.6 0 2560 0 C2560 250.47 2560 500.94 2560 759 C1715.2 759 870.4 759 0 759 C0 508.53 0 258.06 0 0 Z " fill="#100F0D" transform="translate(0,0)"/>
<path d="M0 0 C844.8 0 1689.6 0 2560 0 C2560 250.47 2560 500.94 2560 759 C1715.2 759 870.4 759 0 759 C0 508.53 0 258.06 0 0 Z M32 45 C20.57740415 59.47807577 14.65644816 76.93126147 14.74552441 95.3219471 C14.74231793 96.3163906 14.73911145 97.31083411 14.73580781 98.33541226 C14.72752516 101.65824806 14.73342611 104.9809028 14.73930359 108.30374146 C14.73628211 110.71397834 14.73239265 113.12421427 14.72771102 115.5344485 C14.71956898 120.77008931 14.71763062 126.0056944 14.72121429 131.24133873 C14.7265295 139.0273398 14.72041771 146.8133031 14.71213136 154.59930007 C14.69689903 169.31623492 14.69518557 184.03315256 14.69765439 198.75009365 C14.69948802 210.11747457 14.69772597 221.48484986 14.69342995 232.85223007 C14.69282754 234.48618144 14.69222634 236.12013282 14.69162634 237.75408419 C14.69071907 240.21640914 14.68981041 242.67873408 14.68889399 245.14105903 C14.68046533 268.03267449 14.6761281 290.92428782 14.68030071 313.81590462 C14.68045709 314.67871421 14.68061346 315.54152381 14.68077458 316.43047915 C14.68158034 320.80338482 14.68242611 325.17629048 14.68328788 329.54919614 C14.68345897 330.41764329 14.68363006 331.28609044 14.68380633 332.18085417 C14.68415299 333.93706591 14.68450152 335.69327765 14.68485192 337.44948939 C14.69020742 364.7674458 14.68228322 392.08536992 14.66381836 419.40332031 C14.64308863 450.1078873 14.63237763 480.81243429 14.63639385 511.51700866 C14.63678918 514.79296422 14.63715073 518.06891977 14.63749123 521.34487534 C14.63758196 522.1514746 14.63767269 522.95807385 14.63776617 523.78911552 C14.63893079 535.95087105 14.63229403 548.11260636 14.62167931 560.27435684 C14.60961371 574.11239843 14.60808388 587.95039553 14.62046947 601.7884378 C14.62708537 609.52586186 14.62549646 617.26317947 14.61188096 625.00059495 C14.60263285 630.78837637 14.60918486 636.5760562 14.62172876 642.36382745 C14.62437553 644.69757966 14.6220098 647.03134437 14.61399289 649.36508431 C14.52662804 676.70504701 19.11174537 700.90009492 39.015625 721.2109375 C56.1001048 737.71685922 77.23708744 743.65074407 100.33132869 743.50024599 C102.03056193 743.50409507 103.72979192 743.50969637 105.42901438 743.51686731 C110.0804932 743.53146576 114.73163259 743.52135751 119.38310006 743.50706343 C124.46911575 743.49590275 129.55508645 743.50812214 134.64109877 743.51728085 C143.58325531 743.53017831 152.52531319 743.52822253 161.46747003 743.51656907 C174.85413094 743.49919928 188.24071442 743.50495027 201.62737915 743.51518357 C224.44272197 743.53194825 247.2580179 743.52975448 270.07335854 743.51719666 C293.19556329 743.50453106 316.31774533 743.50059455 339.43995285 743.50731087 C340.16940561 743.5075187 340.89885836 743.50772653 341.65041575 743.50794066 C348.33546092 743.50984705 355.02050605 743.51184487 361.70555116 743.5139523 C378.46842182 743.51922774 395.23129265 743.52312833 411.99416387 743.52610219 C412.76227345 743.52623914 413.53038303 743.5263761 414.32176866 743.52651721 C452.18108067 743.53313867 490.04038757 743.52456366 527.89969826 743.51461601 C541.22654285 743.51112041 554.55338745 743.50764791 567.8802321 743.50437045 C568.70869975 743.5041662 569.5371674 743.50396195 570.39074013 743.50375151 C608.7792047 743.49434966 647.16766751 743.49420402 685.55613296 743.49619585 C688.90531033 743.4963676 692.2544877 743.49652859 695.60366507 743.49668957 C709.06394162 743.49733749 722.52421818 743.49802944 735.98449473 743.4987924 C774.47355082 743.50097403 812.96260687 743.50181192 851.45166302 743.5015192 C852.30865127 743.50151317 853.16563952 743.50150715 854.04859711 743.50150094 C909.54967887 743.50108973 965.05075819 743.49474004 1020.55183887 743.48396206 C1021.88090195 743.48370459 1021.88090195 743.48370459 1023.23681479 743.48344193 C1052.91515253 743.47768938 1082.5934902 743.4715742 1112.27182786 743.46543228 C1202.02838867 743.44686716 1291.78494346 743.43408381 1452.08695074 743.44579828 C1456.59866357 743.44620924 1461.1103764 743.44661661 1465.62208923 743.44702397 C1466.51495662 743.44710459 1467.407824 743.44718521 1468.32774797 743.44726828 C1471.03231183 743.44751242 1473.73687569 743.44775643 1476.44143955 743.44800042 C1477.77960964 743.44812124 1477.77960964 743.44812124 1479.14481347 743.4482445 C1498.90733261 743.45002799 1518.66985175 743.45176564 1538.4323709 743.45341804 C1540.22245754 743.45356789 1542.01254419 743.45371828 1543.80263083 743.4538692 C1599.27918845 743.45854624 1654.75574494 743.45953549 1710.23230267 743.45603275 C1711.08897314 743.45597894 1711.94564361 743.45592514 1712.82827379 743.4558697 C1752.136308 743.45338799 1791.44434205 743.44977056 1830.75237608 743.44523775 C1834.96484081 743.44475326 1839.17730555 743.44427486 1843.38977029 743.44379692 C1844.63922882 743.44365512 1844.63922882 743.44365512 1845.91392894 743.44351044 C1852.63138025 743.44274868 1859.34883155 743.441992 1866.06628286 743.44123752 C1870.25099123 743.44076674 1874.4356996 743.4402908 1878.62040797 743.43980437 C1917.01073751 743.43534448 1955.40106568 743.43267082 1993.79139543 743.43590808 C1995.03360268 743.43601186 1995.03360268 743.43601186 1996.30090504 743.43611774 C2005.47438159 743.43688714 2014.64785813 743.43770782 2023.82133468 743.43854547 C2027.14148256 743.4388481 2030.46163045 743.43915002 2033.78177834 743.43945122 C2035.01169532 743.43956298 2035.01169532 743.43956298 2036.26645912 743.439677 C2074.07512457 743.44309282 2111.88378711 743.44458163 2149.69245183 743.4351598 C2150.84274995 743.43487371 2150.84274995 743.43487371 2152.01628641 743.43458185 C2168.74510411 743.43038484 2185.47392142 743.42530297 2202.20273858 743.41934954 C2208.87417652 743.41698634 2215.54561448 743.41472698 2222.21705246 743.41249657 C2223.30867099 743.41212692 2223.30867099 743.41212692 2224.42234241 743.41174982 C2247.51785576 743.40397683 2270.61335625 743.40537922 2293.70886961 743.4120626 C2317.07120962 743.41878019 2340.43352223 743.41513701 2363.79585995 743.39879211 C2377.0940251 743.38980611 2390.39212988 743.38906998 2403.69029365 743.40033331 C2412.51024383 743.40698804 2421.33014545 743.40285989 2430.15008836 743.38978182 C2435.15740701 743.38266265 2440.16460407 743.3802744 2445.1719188 743.39111372 C2449.71488443 743.40086013 2454.25762103 743.3968181 2458.80057031 743.38177387 C2460.42995906 743.37878547 2462.0593668 743.38080021 2463.68874018 743.38848275 C2472.53045615 743.42724448 2480.56097456 742.97621342 2489 740 C2490.08152344 739.62359375 2491.16304687 739.2471875 2492.27734375 738.859375 C2516.32618376 728.83019649 2530.9144773 713.39383459 2541.03515625 689.5625 C2546.0945839 675.7317028 2545.28871123 660.81088794 2545.26742554 646.335495 C2545.27116534 643.9226687 2545.27576818 641.50984362 2545.28115618 639.09702045 C2545.29081663 633.86501959 2545.29430675 628.63305265 2545.29224396 623.40104485 C2545.28918391 615.62049955 2545.29754 607.83999492 2545.30799321 600.05945754 C2545.32730078 585.35274264 2545.33296019 570.64604173 2545.33410732 555.93931564 C2545.33502752 544.58058742 2545.33914996 533.22186465 2545.34550858 521.8631382 C2545.34730374 518.58985753 2545.34908337 515.31657684 2545.35085833 512.04329616 C2545.35152148 510.82257658 2545.35152148 510.82257658 2545.35219802 509.577196 C2545.36450024 486.69736493 2545.37239975 463.81753575 2545.37151146 440.93770123 C2545.3714803 440.07568968 2545.37144914 439.21367813 2545.37141704 438.32554502 C2545.37125084 433.95681183 2545.37105275 429.58807865 2545.37084763 425.21934547 C2545.37080774 424.35174534 2545.37076785 423.48414521 2545.37072675 422.59025417 C2545.37064587 420.83575743 2545.37056228 419.08126069 2545.37047596 417.32676394 C2545.3692504 390.02844959 2545.38426714 362.73018491 2545.41162109 335.43188477 C2545.44236152 304.74157786 2545.45955247 274.0513036 2545.45769465 243.36098033 C2545.45754539 240.08675659 2545.45744798 236.81253284 2545.45738602 233.5383091 C2545.45736271 232.73214934 2545.4573394 231.92598958 2545.45731538 231.09540074 C2545.45725392 218.14017206 2545.47000804 205.18498664 2545.48725055 192.22977081 C2545.50422792 179.20416871 2545.50616435 166.17862968 2545.4930319 153.15302261 C2545.48565728 145.42221606 2545.48925606 137.69160152 2545.50891658 129.96081543 C2545.52237617 124.17808415 2545.51476573 118.39552957 2545.49917014 112.61281071 C2545.49610223 110.28116567 2545.49972463 107.94949968 2545.51089029 105.61787935 C2545.58760862 88.45445977 2544.21675876 73.44846749 2536 58 C2535.33871094 56.74123047 2535.33871094 56.74123047 2534.6640625 55.45703125 C2530.94623599 48.83272711 2526.30518756 43.40921085 2521 38 C2519.90945313 36.8553125 2519.90945313 36.8553125 2518.796875 35.6875 C2501.91570131 19.15084006 2480.13390762 14.67747257 2457.33388931 14.74700034 C2455.64595047 14.74476347 2453.9580126 14.74165105 2452.2700768 14.73774853 C2447.62674314 14.7295522 2442.98349141 14.73378861 2438.34015781 14.74004027 C2433.27160995 14.74464963 2428.2030758 14.7376291 2423.13453069 14.73210663 C2414.21536972 14.72399806 2405.29623206 14.72334784 2396.37706874 14.72751851 C2383.02465953 14.73372798 2369.67227176 14.72844649 2356.31986411 14.7209211 C2333.56464426 14.70844048 2310.8094345 14.70549605 2288.05421257 14.70775604 C2264.98795962 14.71001972 2241.92171308 14.70795728 2218.85546112 14.70061111 C2217.3848989 14.70014713 2215.91433669 14.69968318 2214.44377447 14.69921928 C2208.51447393 14.69734021 2202.58517341 14.69542762 2196.65587289 14.6934769 C2179.94148829 14.68798604 2163.22710352 14.68322726 2146.51271856 14.67897296 C2145.74676931 14.67877786 2144.98082007 14.67858276 2144.19166025 14.67838175 C2100.62344566 14.66736947 2057.05523071 14.6667625 2013.48701498 14.66594003 C2006.82673654 14.66581353 2000.16645811 14.66568049 1993.50617968 14.66553892 C1991.83684395 14.66550354 1990.16750822 14.66546879 1988.49817248 14.66543468 C1951.03908788 14.66465923 1913.58000402 14.6603025 1876.12091979 14.65517417 C1867.76165788 14.65403105 1859.40239595 14.65292311 1851.04313403 14.6518129 C1850.21336949 14.65170266 1849.38360495 14.65159242 1848.52869603 14.65147883 C1843.49188387 14.65080983 1838.45507171 14.6501423 1833.41825955 14.64947571 C1830.89509499 14.64914155 1828.37193043 14.64880653 1825.84876588 14.64847143 C1786.61752647 14.6432676 1747.386287 14.63880703 1708.15504742 14.63510704 C1707.30024244 14.6350263 1706.44543747 14.63494556 1705.56472931 14.63486237 C1651.09075421 14.62973587 1596.61677953 14.6279374 1542.1428042 14.62846304 C1539.46401269 14.62848855 1536.78522117 14.62851247 1534.10642966 14.62853586 C1515.28668598 14.62870054 1496.4669423 14.62890596 1477.64719863 14.62912162 C1472.25113445 14.62918316 1466.85507026 14.62924329 1461.45900608 14.62930325 C1456.95798365 14.62935344 1452.45696121 14.62940502 1447.95593878 14.62945947 C1362.93965881 14.63048236 1277.92338265 14.62764572 1192.90710449 14.60876465 C1191.56446754 14.60846657 1191.56446754 14.60846657 1190.19470661 14.60816248 C1162.22770471 14.60193975 1134.26070293 14.59520678 1106.29370117 14.58837891 C1077.59744425 14.5813761 1048.90118732 14.57443518 1020.20493031 14.56785011 C1019.32136101 14.56764706 1018.43779172 14.56744401 1017.5274476 14.5672348 C962.19460459 14.55453712 906.86176267 14.54669289 851.52891827 14.54413414 C850.24708423 14.54407406 850.24708423 14.54407406 848.93935456 14.54401276 C811.4099904 14.54226214 773.88062629 14.54162256 736.3512621 14.54219453 C721.25333994 14.5424231 706.15541778 14.54253523 691.05749562 14.54260117 C688.55418336 14.54261397 686.0508711 14.54263213 683.54755884 14.54265147 C645.25459005 14.54292448 606.96162473 14.54023157 568.66865754 14.52856112 C567.42986103 14.5281841 567.42986103 14.5281841 566.16603832 14.52779947 C552.88092808 14.5237414 539.59581791 14.51945337 526.31070774 14.51514585 C488.59843675 14.50292817 450.8861704 14.49284002 413.17389715 14.49708819 C412.40872161 14.49717362 411.64354606 14.49725905 410.85518339 14.49734706 C394.16172509 14.49925376 377.46826719 14.50228538 360.7748093 14.50642049 C354.11705429 14.50805314 347.45929925 14.50954039 340.80154419 14.51098251 C339.71217217 14.51122447 339.71217217 14.51122447 338.60079264 14.51147131 C315.56611581 14.51651875 292.53146483 14.50928384 269.49679251 14.49494688 C246.18846003 14.48049304 222.88017295 14.47983851 199.57183726 14.49602441 C186.3095159 14.50480613 173.04730532 14.50259905 159.78499307 14.48429084 C150.98236717 14.4732283 142.17982412 14.47661455 133.37720463 14.49185641 C128.38378855 14.50009539 123.3905908 14.50211646 118.39718786 14.48635503 C113.86091697 14.47215356 109.32504829 14.47656586 104.78879782 14.49542241 C103.16745184 14.49898365 101.54607326 14.495968 99.9247588 14.48525015 C73.1775397 14.32046365 49.3585501 24.37665479 32 45 Z " fill="#A0A09F" transform="translate(0,0)"/>
<path d="M0 0 C3.55507475 1.39352818 6.84975092 2.93435356 10.18359375 4.80078125 C11.18189209 5.35886475 12.18019043 5.91694824 13.20874023 6.49194336 C14.27423096 7.09272705 15.33972168 7.69351074 16.4375 8.3125 C17.55133057 8.93842041 18.66516113 9.56434082 19.81274414 10.20922852 C27.8104272 14.7213101 35.73769635 19.34215409 43.62792969 24.0390625 C50.61182666 28.19394436 57.64161909 32.26376721 64.6875 36.3125 C67.98183598 38.21316402 71.27511137 40.1156496 74.56787109 42.01904297 C76.91797352 43.37547568 79.2695468 44.72897232 81.62353516 46.07861328 C84.67001238 47.82635806 87.70881333 49.58687039 90.74331665 51.35531616 C92.43833663 52.3392069 94.14031777 53.31107499 95.8425293 54.2824707 C104.81109305 59.53067013 113.57242639 65.55458843 118.9375 74.6875 C119.48664063 75.61433594 120.03578125 76.54117188 120.6015625 77.49609375 C125.65076284 86.53670106 127.34749541 93.54484742 127.3125 103.8125 C127.32861328 104.74642578 127.34472656 105.68035156 127.36132812 106.64257812 C127.37090188 120.43835798 121.85940635 133.27290889 112.375 143.3125 C107.41614442 147.91820266 102.10530715 151.3985095 96.23193359 154.73144531 C93.57859512 156.23951211 90.93991488 157.77189866 88.30078125 159.3046875 C83.27679494 162.21768695 78.2446817 165.11622835 73.20840454 168.00791931 C67.13368966 171.49619785 61.06674512 174.99788575 55 178.5 C52.83336859 179.75006112 50.66670186 181.000061 48.5 182.25 C47.4275 182.86875 46.355 183.4875 45.25 184.125 C35.50000001 189.75 35.50000001 189.75 32.24951172 191.62524414 C30.08442929 192.87435518 27.91939018 194.12354129 25.75439453 195.37280273 C20.31384294 198.51202309 14.87252784 201.64990563 9.4296875 204.78515625 C-1.02206199 210.80747329 -11.46299548 216.84669337 -21.875 222.9375 C-31.14563931 228.35958699 -40.45936699 233.70324012 -49.79046631 239.02023315 C-57.88707843 243.63484029 -65.95788801 248.29084886 -74 253 C-83.22800529 258.4035646 -92.4999467 263.72652361 -101.79101562 269.02050781 C-109.88744133 273.63502804 -117.95806509 278.29095255 -126 283 C-134.63497557 288.05630923 -143.30606319 293.04607122 -152 298 C-161.71382605 303.53563145 -171.39387463 309.12569214 -181.04492188 314.77026367 C-190.68969898 320.40950252 -200.35618585 326.01032183 -210.046875 331.5703125 C-213.61724752 333.61938605 -217.17144227 335.68969465 -220.703125 337.8046875 C-235.59921701 346.65087854 -250.45161921 350.45147361 -267.6484375 347.33984375 C-281.19562444 343.62321646 -294.13897361 334.68449637 -301.2109375 322.35546875 C-306.75945026 311.87085283 -306.75945026 311.87085283 -307 307 C-305.15570551 304.41051453 -305.15570551 304.41051453 -302.32851505 301.59022808 C-301.81133818 301.06612814 -301.2941613 300.5420282 -300.7613124 300.00204644 C-299.00999091 298.23473671 -297.23793083 296.48978533 -295.46534729 294.74382019 C-294.19861272 293.47447118 -292.93319659 292.20380529 -291.66899532 290.93193322 C-288.1798614 287.42933243 -284.67220783 283.94579888 -281.16136777 280.46497405 C-277.38294458 276.71238124 -273.62179399 272.9425485 -269.85855103 269.17474365 C-263.33233728 262.64537869 -256.79519852 256.12711819 -250.25058174 249.6162014 C-240.78811134 240.20242427 -231.34218692 230.77218821 -221.90026199 221.3378096 C-206.58217757 206.0328678 -191.25073276 190.7413821 -175.91088867 175.45825195 C-161.0067405 160.6091498 -146.10888615 145.7537798 -131.21948242 130.88989258 C-130.30221206 129.97419855 -129.38494169 129.05850453 -128.43987525 128.1150622 C-123.83839171 123.52140869 -119.23703195 118.92763122 -114.63573372 114.33379209 C-76.44299595 76.20328843 -38.22857293 38.09457392 0 0 Z " fill="#EA3131" transform="translate(498,275)"/>
<path d="M0 0 C4.27697865 1.68868179 7.30567084 4.85105786 10.58216858 7.96426392 C11.23735916 8.58181191 11.89254974 9.19935991 12.56759459 9.83562148 C21.09650412 17.92202249 29.38452855 26.25274791 37.68530273 34.57177734 C39.50993705 36.39669441 41.33479293 38.22138997 43.15985107 40.04588318 C47.05726736 43.94278006 50.95287717 47.84147491 54.84719658 51.74146652 C60.47743887 57.37990402 66.11050518 63.01551347 71.74422158 68.65047951 C80.88881667 77.79725265 90.03118555 86.94624749 99.17211914 96.09667969 C108.04137641 104.97514355 116.91170392 113.85253593 125.78344727 122.72851562 C126.3321006 123.27743168 126.88075392 123.82634773 127.44603311 124.3918976 C130.19900948 127.14617919 132.95200663 129.90044001 135.70501411 132.6546905 C158.47323145 155.43324157 181.23782088 178.215415 204 201 C202.6186816 204.10423341 201.02909777 206.21999997 198.63043022 208.61566544 C197.5794384 209.6726304 197.5794384 209.6726304 196.50721443 210.75094819 C195.73485045 211.51748648 194.96248647 212.28402478 194.16671753 213.0737915 C193.34829821 213.89391968 192.52987889 214.71404785 191.68665898 215.55902839 C189.41446423 217.83394947 187.13783473 220.10432199 184.85927081 222.37286043 C182.40304207 224.8204575 179.95259042 227.27382629 177.50143433 229.72650146 C173.25400538 233.97497944 169.00292802 238.2197783 164.74935532 242.4621048 C158.59939967 248.59581087 152.4549698 254.73502786 146.31187738 260.87560675 C136.34512672 270.83797945 126.37391731 280.79587704 116.39990234 290.75097656 C106.71071164 300.42181107 97.02362237 310.09474256 87.33935547 319.77050781 C86.44404497 320.66503014 86.44404497 320.66503014 85.53064738 321.57762364 C82.53634002 324.56932094 79.54207396 327.56105958 76.54782844 330.55281878 C51.70495318 355.37495841 26.85484111 380.18984221 2 405 C-1.64041062 401.35958938 -1.12516798 397.31005149 -1.12584114 392.35012054 C-1.12729458 391.67979595 -1.12874802 391.00947135 -1.13024551 390.31883389 C-1.13390792 388.06259026 -1.13041795 385.80641408 -1.12698364 383.5501709 C-1.12813536 381.92027295 -1.12972323 380.29037526 -1.13171089 378.66047812 C-1.13589719 374.1736093 -1.13381665 369.68676167 -1.13072467 365.19989276 C-1.12846797 360.36412075 -1.13195154 355.52835246 -1.13470459 350.69258118 C-1.13915836 341.2161257 -1.13818756 331.73967813 -1.13529195 322.26322234 C-1.13303638 314.56359837 -1.13272606 306.86397662 -1.13381577 299.16435242 C-1.133969 298.06978158 -1.13412223 296.97521074 -1.13428011 295.84747109 C-1.13459982 293.62408515 -1.13492404 291.40069921 -1.1352527 289.17731327 C-1.13810634 268.31358066 -1.13482228 247.44985244 -1.12945233 226.58612055 C-1.1249844 208.67215759 -1.12576036 190.75820112 -1.13037109 172.84423828 C-1.13571889 152.05672108 -1.13783166 131.26920772 -1.13475883 110.48168993 C-1.13444027 108.26634248 -1.1341259 106.05099503 -1.13381577 103.83564758 C-1.13366149 102.74556683 -1.13350721 101.65548607 -1.13334826 100.53237256 C-1.13248373 92.83926367 -1.13394463 85.14615722 -1.13629532 77.45304871 C-1.13909579 68.08165775 -1.1383498 58.71027518 -1.13301457 49.33888519 C-1.13038093 44.55467764 -1.12936685 39.77048408 -1.13266373 34.98627663 C-1.13563355 30.61058375 -1.13402232 26.23491789 -1.12868617 21.85922748 C-1.12756494 20.27247641 -1.12814672 18.68572308 -1.13056196 17.09897345 C-1.13358428 14.94924259 -1.13050231 12.79960536 -1.12584114 10.64987946 C-1.12567879 9.45365038 -1.12551644 8.25742131 -1.12534916 7.02494287 C-1.02020333 4.48754958 -0.74890649 2.41103466 0 0 Z " fill="#5677C4" transform="translate(190,177)"/>
<path d="M0 0 C4.98321344 3.01294965 10.0485144 5.88569887 15.09912109 8.78369141 C23.59392871 13.67383903 32.07433782 18.58748157 40.53662109 23.53369141 C48.8541112 28.39476722 57.18863743 33.2251735 65.53662109 38.03369141 C74.87525316 43.4128322 84.19302427 48.82628587 93.49755859 54.26416016 C100.82945833 58.54591262 108.17929347 62.79580079 115.53662109 67.03369141 C123.88460568 71.84220984 132.21905293 76.67274823 140.53662109 81.53369141 C148.81439197 86.37045576 157.10604038 91.1823321 165.41162109 95.97119141 C166.47880371 96.58655762 167.54598633 97.20192383 168.64550781 97.8359375 C173.72263862 100.76232339 178.8011584 103.68627744 183.88168335 106.60676575 C185.66163449 107.63018396 187.44122779 108.65422154 189.22070312 109.6784668 C191.45011446 110.96147768 193.68021485 112.24329229 195.91113281 113.52368164 C201.52497449 116.75550129 207.06938141 120.05930647 212.53662109 123.53369141 C211.05281873 126.97839059 209.10811368 129.20927448 206.46176147 131.84906006 C205.60918259 132.70438828 204.7566037 133.55971649 203.87818909 134.44096375 C202.93158047 135.38049474 201.98487621 136.31992939 201.03808594 137.25927734 C200.04230008 138.25449891 199.0469547 139.25016138 198.05201721 140.24623108 C195.3521364 142.94668568 192.64613373 145.64092957 189.93899488 148.33410549 C187.11002232 151.15057529 184.28671276 153.97271011 181.46279907 156.79425049 C176.11551165 162.13532182 170.76314642 167.47127444 165.40894091 172.80540967 C159.3131692 178.87882643 153.22307576 184.95792341 147.13345408 191.03750563 C134.60748689 203.54256789 122.07440194 216.04047431 109.53662109 228.53369141 C104.30280727 224.15846257 99.42131395 219.55641357 94.61146545 214.72206116 C93.84342116 213.95416573 93.07537687 213.18627029 92.28405851 212.3951053 C89.72401903 209.83437415 87.16756666 207.27009223 84.61108398 204.70581055 C82.77106109 202.8638675 80.93080966 201.02215273 79.09034729 199.1806488 C75.1333908 195.22081323 71.17821294 191.25920841 67.2241993 187.2964344 C61.49924311 181.5588884 55.77101839 175.82461438 50.04191153 170.09121328 C40.73475935 160.77700211 31.4294772 151.46092525 22.12573242 142.14331055 C21.56955384 141.58630415 21.01337526 141.02929776 20.44034278 140.45541238 C15.92858799 135.93691419 11.41692397 131.41832536 6.90526485 126.89973164 C2.96284571 122.95126009 -0.97960933 119.00282438 -4.92211914 115.05444336 C-5.47731202 114.49842235 -6.0325049 113.94240135 -6.6045218 113.36953122 C-15.87361846 104.08673158 -25.14469171 94.80590845 -34.41716772 85.52648443 C-40.12922505 79.80995594 -45.83950182 74.09165991 -51.5474645 68.37104284 C-55.92399322 63.98506437 -60.30308176 59.60165006 -64.68309975 55.21915627 C-66.47540998 53.42497704 -68.26685704 51.62993506 -70.05736542 49.83395767 C-72.50633686 47.37774322 -74.95840723 44.92466326 -77.41123962 42.4723053 C-78.11466033 41.76528963 -78.81808104 41.05827396 -79.54281753 40.32983357 C-83.49892056 36.38188831 -87.54896419 32.68975454 -91.89880568 29.17647451 C-93.6987083 27.28659837 -94.13615772 26.10005084 -94.46337891 23.53369141 C-91.85863309 12.02768822 -82.99548263 1.14835294 -73.46337891 -5.46630859 C-47.16724402 -20.70926761 -24.55905788 -15.07467966 0 0 Z " fill="#3AAC48" transform="translate(285.46337890625,150.46630859375)"/>
<path d="M0 0 C3.55507475 1.39352818 6.84975092 2.93435356 10.18359375 4.80078125 C11.18189209 5.35886475 12.18019043 5.91694824 13.20874023 6.49194336 C14.27423096 7.09272705 15.33972168 7.69351074 16.4375 8.3125 C17.55133057 8.93842041 18.66516113 9.56434082 19.81274414 10.20922852 C27.8104272 14.7213101 35.73769635 19.34215409 43.62792969 24.0390625 C50.61182666 28.19394436 57.64161909 32.26376721 64.6875 36.3125 C67.98183598 38.21316402 71.27511137 40.1156496 74.56787109 42.01904297 C76.91797352 43.37547568 79.2695468 44.72897232 81.62353516 46.07861328 C84.67001238 47.82635806 87.70881333 49.58687039 90.74331665 51.35531616 C92.43833663 52.3392069 94.14031777 53.31107499 95.8425293 54.2824707 C104.81109305 59.53067013 113.57242639 65.55458843 118.9375 74.6875 C119.48664063 75.61433594 120.03578125 76.54117188 120.6015625 77.49609375 C125.65076284 86.53670106 127.34749541 93.54484742 127.3125 103.8125 C127.32861328 104.74642578 127.34472656 105.68035156 127.36132812 106.64257812 C127.37090188 120.43835798 121.85940635 133.27290889 112.375 143.3125 C107.41614442 147.91820266 102.10530715 151.3985095 96.23193359 154.73144531 C93.57859512 156.23951211 90.93991488 157.77189866 88.30078125 159.3046875 C83.27679494 162.21768695 78.2446817 165.11622835 73.20840454 168.00791931 C67.13368959 171.49619789 61.06675967 174.99791086 55 178.5 C52.84898811 179.74093704 50.69794633 180.98182226 48.546875 182.22265625 C44.63670629 184.47847754 40.72684735 186.73483378 36.81741333 188.9919281 C13.33215937 202.55097112 13.33215937 202.55097112 2 209 C-3.92707277 204.08449376 -9.35903664 198.7764013 -14.79077148 193.32275391 C-15.7570939 192.35614889 -16.72363761 191.38976506 -17.69038391 190.42358398 C-20.29543517 187.81881787 -22.89740683 185.2109955 -25.49880862 182.60258532 C-28.22494639 179.87016662 -30.95394486 177.14060801 -33.68263245 174.41073608 C-38.84097527 169.24929386 -43.99676519 164.0853094 -49.1516276 158.92039144 C-55.02393537 153.0368792 -60.89910663 147.15622992 -66.77451217 141.27581143 C-78.8528487 129.18704204 -90.92761029 117.0947081 -103 105 C-101.51619764 101.55530082 -99.57149259 99.32441693 -96.92514038 96.68463135 C-96.07256149 95.82930313 -95.2199826 94.97397491 -94.34156799 94.09272766 C-93.39495937 93.15319666 -92.44825511 92.21376201 -91.50146484 91.27441406 C-90.50567898 90.2791925 -89.51033361 89.28353002 -88.51539612 88.28746033 C-85.81551531 85.58700572 -83.10951264 82.89276184 -80.40237379 80.19958591 C-77.57340123 77.38311612 -74.75009167 74.56098129 -71.92617798 71.73944092 C-66.57889055 66.39836959 -61.22652533 61.06241696 -55.87231982 55.72828174 C-49.77654811 49.65486497 -43.68645466 43.575768 -37.59683299 37.49618578 C-25.0708658 24.99112352 -12.53778085 12.4932171 0 0 Z " fill="#F5B50B" transform="translate(498,275)"/>
<path d="M0 0 C2.86092024 2.14691279 5.61541062 4.33371927 8.28515625 6.71484375 C8.28515625 2.75484375 8.28515625 -1.20515625 8.28515625 -5.28515625 C19.17515625 -5.28515625 30.06515625 -5.28515625 41.28515625 -5.28515625 C41.37568139 15.56069385 41.4492686 36.40638316 41.49240494 57.25238037 C41.51297213 66.93297394 41.54098011 76.61343612 41.58691406 86.29394531 C41.62696169 94.7379942 41.65263145 103.18194786 41.66151023 111.6260891 C41.66669483 116.09132055 41.67875653 120.55627973 41.70807648 125.02142334 C41.73552997 129.23707777 41.74354186 133.45235166 41.73758698 137.66808701 C41.738674 139.20299229 41.7464478 140.73791231 41.76197815 142.27273941 C41.97890024 164.84656173 35.02270937 186.90243034 19.43359375 203.65625 C3.51246444 218.91158663 -17.48556486 223.24450655 -38.765625 222.91796875 C-59.58396074 222.25796352 -78.24633352 213.15170767 -92.73046875 198.12890625 C-105.71484375 182.33295399 -105.71484375 182.33295399 -105.71484375 174.71484375 C-101.98620438 173.08863194 -98.25684069 171.46408777 -94.52734375 169.83984375 C-93.47224609 169.37964844 -92.41714844 168.91945313 -91.33007812 168.4453125 C-89.79770508 167.77822266 -89.79770508 167.77822266 -88.234375 167.09765625 C-86.82828979 166.48494873 -86.82828979 166.48494873 -85.39379883 165.85986328 C-84.50974365 165.48200684 -83.62568848 165.10415039 -82.71484375 164.71484375 C-81.39939575 164.14612549 -81.39939575 164.14612549 -80.05737305 163.56591797 C-77.71484375 162.71484375 -77.71484375 162.71484375 -74.71484375 162.71484375 C-74.24046875 163.82859375 -73.76609375 164.94234375 -73.27734375 166.08984375 C-67.83248165 176.90287975 -58.27150865 185.0182735 -46.96069336 189.1105957 C-42.92016058 190.19770502 -38.93676027 190.14686545 -34.77734375 190.08984375 C-33.51374023 190.10724609 -33.51374023 190.10724609 -32.22460938 190.125 C-22.21848057 190.07878231 -12.34558096 186.67848559 -4.76953125 180 C7.66057423 166.84345978 7.61583726 149.71202348 8.28515625 132.71484375 C7.47433594 133.37871094 6.66351562 134.04257812 5.828125 134.7265625 C-9.20577483 146.81541853 -25.10805336 152.47702429 -44.71484375 150.71484375 C-66.67689809 147.04681156 -85.73559398 134.60144237 -98.71484375 116.71484375 C-111.59584465 98.34273888 -114.86899031 76.67946863 -112.02734375 54.77734375 C-109.26156407 39.67193168 -101.77112418 26.14665977 -91.71484375 14.71484375 C-91.04839844 13.95300781 -90.38195313 13.19117188 -89.6953125 12.40625 C-66.97309695 -11.91790283 -28.09955139 -19.36877071 0 0 Z " fill="#FDFDFD" transform="translate(1500.71484375,423.28515625)"/>
<path d="M0 0 C117.79149071 0 117.79149071 0 140.75390625 21.75 C154.69981236 35.72015986 162.17420586 51.8393545 162.1875 71.6875 C162.19974609 72.63044922 162.21199219 73.57339844 162.22460938 74.54492188 C162.2630377 93.18265734 155.14388962 110.09334269 142.39453125 123.625 C128.48691023 137.41918202 108.65955086 147.1553999 88.81103516 147.11352539 C87.59359619 147.11340454 86.37615723 147.11328369 85.12182617 147.11315918 C83.85701416 147.10804321 82.59220215 147.10292725 81.2890625 147.09765625 C79.52888794 147.09614563 79.52888794 147.09614563 77.7331543 147.09460449 C73.36375954 147.0893857 68.99437876 147.07542445 64.625 147.0625 C54.84875 147.041875 45.0725 147.02125 35 147 C35 176.7 35 206.4 35 237 C23.45 237 11.9 237 0 237 C0 158.79 0 80.58 0 0 Z " fill="#FEFEFE" transform="translate(1846,332)"/>
<path d="M0 0 C0.90141724 0.68980957 0.90141724 0.68980957 1.82104492 1.39355469 C4.8486277 3.7946355 6.741923 5.74164984 8.3125 9.25 C5.29019384 12.4206262 2.24864054 15.57106487 -0.81225586 18.7043457 C-1.85064611 19.77290946 -2.88358783 20.84679613 -3.91088867 21.92602539 C-5.38881131 23.47673804 -6.88528723 25.00723747 -8.38671875 26.53515625 C-9.28221436 27.46207275 -10.17770996 28.38898926 -11.1003418 29.34399414 C-13.6875 31.25 -13.6875 31.25 -16.38671875 31.14257812 C-19.15107248 30.07015906 -20.80503073 28.67973676 -23 26.6875 C-33.0426173 18.36348536 -45.15524118 13.4929968 -57.6875 10.25 C-58.26556396 10.0756543 -58.84362793 9.90130859 -59.43920898 9.72167969 C-82.85987829 4.80814585 -106.5556757 10.87206797 -126.53125 22.97265625 C-146.83712308 36.56345421 -159.70947254 56.45716984 -164.6875 80.25 C-169.18551421 105.18796993 -164.6592611 130.1000367 -150.6875 151.25 C-136.99508385 170.63603801 -116.01868004 183.92643558 -92.6875 188.25 C-87.47752211 188.7050697 -82.28892964 188.78503795 -77.0625 188.75 C-76.35917542 188.74823761 -75.65585083 188.74647522 -74.93121338 188.74465942 C-63.59743932 188.68142046 -53.21510586 187.6952329 -42.6875 183.25 C-42.04699707 182.9823584 -41.40649414 182.7147168 -40.74658203 182.43896484 C-32.94518572 179.07013522 -26.12845241 174.78824317 -19.6875 169.25 C-18.70910156 168.47914063 -17.73070312 167.70828125 -16.72265625 166.9140625 C-3.38074321 155.76855613 0.30972837 138.26108654 4.3125 122.25 C-22.7475 122.25 -49.8075 122.25 -77.6875 122.25 C-77.6875 110.7 -77.6875 99.15 -77.6875 87.25 C-39.4075 87.25 -1.1275 87.25 38.3125 87.25 C42.19117691 118.27941524 39.09151014 152.0473074 19.99755859 178.04003906 C16.94528454 181.94343829 13.67534903 185.61284002 10.3125 189.25 C9.40371094 190.26320313 9.40371094 190.26320313 8.4765625 191.296875 C-11.99799013 213.06981389 -42.18157555 223.34576894 -71.421875 224.52734375 C-107.16979378 225.40648831 -140.30035502 212.82972878 -166.49462891 188.41967773 C-185.57573288 170.05467713 -200.05277793 143.63713814 -203.6875 117.25 C-203.85185547 116.18458984 -203.85185547 116.18458984 -204.01953125 115.09765625 C-208.26853075 81.95546012 -198.7526384 48.94704062 -178.39160156 22.57128906 C-162.79530909 2.83653084 -143.03110391 -10.6121213 -119.6875 -19.75 C-118.86121094 -20.07484375 -118.03492188 -20.3996875 -117.18359375 -20.734375 C-77.49226207 -35.06126452 -32.74935336 -25.21704415 0 0 Z " fill="#FCFCFC" transform="translate(982.6875,349.75)"/>
<path d="M0 0 C1.85383301 0.01353516 1.85383301 0.01353516 3.74511719 0.02734375 C24.60851883 0.42171627 42.5324085 7.59253714 57.875 21.8125 C59.0815625 23.111875 59.0815625 23.111875 60.3125 24.4375 C60.90546875 25.03691406 61.4984375 25.63632812 62.109375 26.25390625 C71.4865792 36.12177811 77.00828395 47.31878083 80.3125 60.4375 C80.66957031 61.67628906 81.02664063 62.91507812 81.39453125 64.19140625 C82.57238025 68.95716453 82.65603696 73.60965535 82.625 78.5 C82.61762817 79.88155273 82.61762817 79.88155273 82.61010742 81.29101562 C82.22129372 104.21307874 73.31675364 124.16493047 57.3125 140.4375 C47.27420804 149.5269671 34.42863836 156.02634314 21.3125 159.4375 C20.16394531 159.74300781 20.16394531 159.74300781 18.9921875 160.0546875 C-2.43484508 164.83809233 -23.90445219 160.28802373 -42.6875 149.4375 C-46.32835286 147.04129939 -49.50887658 144.41345951 -52.6875 141.4375 C-54.05648438 140.20386719 -54.05648438 140.20386719 -55.453125 138.9453125 C-69.90512902 125.32252182 -79.13569786 106.19622253 -80.0234375 86.2109375 C-80.21496889 74.67037788 -79.3676763 64.393288 -75.6875 53.4375 C-75.336875 52.38433594 -74.98625 51.33117187 -74.625 50.24609375 C-67.30099019 30.74083153 -52.11980219 15.86210886 -33.5859375 6.9453125 C-22.40716562 2.06362659 -12.20778688 -0.10664733 0 0 Z " fill="#FDFDFD" transform="translate(1290.6875,412.5625)"/>
<path d="M0 0 C1.49080078 0.52787109 1.49080078 0.52787109 3.01171875 1.06640625 C24.31092794 9.32973581 39.90677682 23.49128168 49.45703125 44.3828125 C54.20949391 55.52402877 55.35678526 65.21801769 55.4375 77.25 C55.44773193 78.43416504 55.45796387 79.61833008 55.46850586 80.83837891 C55.39341828 88.34398636 54.39742925 94.89097116 52 102 C51.77046631 102.69270996 51.54093262 103.38541992 51.30444336 104.09912109 C44.63153323 123.24661828 31.4279231 139.13652023 13.4375 148.6875 C-7.28349504 158.59458406 -31.05043459 161.74086638 -53 154 C-72.77518136 146.10815343 -89.85905035 132.54180818 -98.94335938 112.96728516 C-103.89897075 101.35769891 -106.37465113 90.29293498 -106.25 77.625 C-106.24178223 76.60986328 -106.23356445 75.59472656 -106.22509766 74.54882812 C-105.89267863 52.28747684 -97.8929646 33.76500192 -82 18 C-61.00016856 -2.03163571 -27.68356281 -9.86152667 0 0 Z " fill="#FDFDFD" transform="translate(1141,416)"/>
<path d="M0 0 C10.34810464 8.38585224 16.68166103 20.25157909 20 33 C20.17691879 33.67496017 20.35383759 34.34992035 20.53611755 35.04533386 C21.21090715 39.34335802 21.13021477 43.58690113 21.11352539 47.9309082 C21.11367142 48.92650253 21.11381744 49.92209686 21.1139679 50.94786072 C21.11327232 54.23218988 21.10549652 57.51646202 21.09765625 60.80078125 C21.09579081 63.08049997 21.0943675 65.36021909 21.09336853 67.63993835 C21.08955329 73.63551951 21.07973146 79.63107638 21.06866455 85.62664795 C21.0584291 91.746538 21.05386633 97.86643198 21.04882812 103.98632812 C21.03810832 115.99089779 21.02051953 127.99544308 21 140 C9.78 140 -1.44 140 -13 140 C-13 134.06 -13 128.12 -13 122 C-13.66 122 -14.32 122 -15 122 C-15.2578125 122.74378906 -15.515625 123.48757813 -15.78125 124.25390625 C-19.86670062 133.45926453 -30.25021468 139.24006613 -39.25 142.8125 C-53.29210054 147.25916517 -71.50887619 147.09092931 -85 141 C-86.42119141 140.36384766 -86.42119141 140.36384766 -87.87109375 139.71484375 C-102.38339767 132.48888383 -111.96562398 120.9574827 -117.08203125 105.79296875 C-119.98904874 93.78141989 -118.99974211 80.86029267 -113 70 C-103.14633698 54.27815057 -86.68788759 45.21366905 -69 41 C-50.27376161 36.99866701 -31.20845433 40.43113627 -14 48 C-13.73696603 39.66384636 -16.23503031 32.91835135 -21.8984375 26.703125 C-32.83571753 17.83945568 -45.31350422 16.00842735 -59 17 C-67.52298695 18.85512776 -75.52655807 23.02747604 -80.5 30.375 C-80.995 31.24125 -81.49 32.1075 -82 33 C-86.06279501 32.33553963 -89.593141 31.06349163 -93.39453125 29.49609375 C-95.19760742 28.75649414 -95.19760742 28.75649414 -97.03710938 28.00195312 C-98.29561319 27.48056595 -99.55407623 26.95908034 -100.8125 26.4375 C-102.09032577 25.91169842 -103.36831896 25.38630353 -104.64648438 24.86132812 C-107.765993 23.57820948 -110.88373266 22.29096615 -114 21 C-110.22680251 9.14571931 -100.4313144 -0.59798216 -89.6875 -6.625 C-60.72915352 -21.4408982 -26.45936149 -19.50713358 0 0 Z " fill="#FDFDFD" transform="translate(2201,428)"/>
<path d="M0 0 C3.65483396 3.05950138 7.03599899 6.34657741 10.38525391 9.73535156 C11.38685547 10.72148437 11.38685547 10.72148437 12.40869141 11.72753906 C20.99271386 20.77766228 27.5319616 33.91751367 31.38525391 45.73535156 C30.38525391 48.73535156 30.38525391 48.73535156 27.34228516 50.27490234 C25.96536187 50.83816926 24.58336325 51.38911619 23.19775391 51.93066406 C22.44494644 52.23534607 21.69213898 52.54002808 20.91651917 52.85394287 C18.40999669 53.86607822 15.8976496 54.862895 13.38525391 55.86035156 C11.62814338 56.5675602 9.87155891 57.27607714 8.11547852 57.98583984 C5.36443639 59.09754608 2.61307634 60.20838755 -0.13990784 61.3152771 C-9.26720066 64.98594031 -18.35624119 68.74646736 -27.43966675 72.5241394 C-30.0384863 73.60463076 -32.6381345 74.68310395 -35.23803711 75.76098633 C-42.65112278 78.83527626 -50.06072482 81.91734335 -57.45849609 85.02832031 C-59.16114624 85.7430249 -59.16114624 85.7430249 -60.89819336 86.47216797 C-62.93128625 87.32669962 -64.96312621 88.1842214 -66.9934082 89.04541016 C-67.85716064 89.40844238 -68.72091309 89.77147461 -69.61083984 90.14550781 C-70.71190063 90.61162476 -70.71190063 90.61162476 -71.83520508 91.0871582 C-73.61474609 91.73535156 -73.61474609 91.73535156 -75.61474609 91.73535156 C-70.76112083 101.81595788 -64.0440477 109.30246884 -53.61474609 113.73535156 C-42.84743294 117.42848796 -29.87647982 117.24542753 -19.28271484 113.05175781 C-10.28731637 108.61332548 -3.99103876 102.3899831 2.38525391 94.73535156 C8.81869979 98.17094828 14.91140973 101.95903571 20.94775391 106.04785156 C21.76566406 106.59763672 22.58357422 107.14742187 23.42626953 107.71386719 C25.41478127 109.0511704 27.40104032 110.39168307 29.38525391 111.73535156 C27.32589419 121.5224586 15.24691305 130.50026983 7.23291016 135.83300781 C-11.67403988 147.48219842 -34.42292522 152.10621259 -56.23974609 147.23535156 C-68.67498511 144.15470524 -79.97051686 138.1312672 -89.61474609 129.73535156 C-90.49453125 129.06826172 -90.49453125 129.06826172 -91.39208984 128.38769531 C-104.6652763 118.06410585 -113.68691027 99.80315369 -116.31738281 83.37597656 C-118.00148533 68.42092497 -118.64396852 51.78383387 -112.61474609 37.73535156 C-112.24091797 36.7853125 -111.86708984 35.83527344 -111.48193359 34.85644531 C-102.68054028 13.90213474 -87.42609569 -0.48486033 -66.61474609 -9.26464844 C-45.80454465 -17.06847398 -17.54420867 -13.74039929 0 0 Z " fill="#FDFDFD" transform="translate(1736.61474609375,425.2646484375)"/>
<path d="M0 0 C12.54 0 25.08 0 38 0 C48.18618412 24.49952906 58.30298942 49.02407263 68.30957031 73.59741211 C74.10102124 87.82087873 74.10102124 87.82087873 80 102 C82.90225283 96.38351073 85.39015201 90.7409156 87.66015625 84.84375 C88.00289078 83.96320953 88.34562531 83.08266907 88.69874573 82.17544556 C89.4380222 80.27516985 90.17561577 78.37423873 90.91168213 76.47271729 C92.8903378 71.36158366 94.88151753 66.25532775 96.87109375 61.1484375 C97.28488281 60.0853537 97.69867187 59.0222699 98.125 57.92697144 C102.91096036 45.64091829 107.76608432 33.38234241 112.625 21.125 C113.46883648 18.99544473 114.31266799 16.86588749 115.15649414 14.73632812 C117.10323048 9.82378181 119.05165274 4.91190871 121 0 C134.2 0 147.4 0 161 0 C153.8049619 17.52339924 146.26277192 34.87265196 138.62785339 52.2077179 C138.24019302 53.08792099 137.85253265 53.96812408 137.453125 54.875 C136.87568291 56.1859388 136.87568291 56.1859388 136.28657532 57.52336121 C132.9754402 65.04519554 129.69829157 72.58120725 126.4375 80.125 C121.56059766 91.40413864 116.66210728 102.6736491 111.75 113.9375 C111.39119751 114.76033478 111.03239502 115.58316956 110.66271973 116.43093872 C108.46925335 121.46105686 106.27537356 126.49099459 104.08135986 131.52087402 C94.85139073 152.68150428 85.62698819 173.84456155 76.41641235 195.01364136 C75.51967048 197.07439925 74.62268077 199.13504933 73.72543335 201.19558716 C72.47379397 204.07018569 71.22310386 206.94519539 69.97265625 209.8203125 C69.59950287 210.676819 69.22634949 211.5333255 68.84188843 212.41578674 C68.4958255 213.2120195 68.14976257 214.00825226 67.79321289 214.82861328 C67.49363174 215.51706329 67.1940506 216.20551331 66.88539124 216.91482544 C65.88873016 219.26205031 64.94706792 221.6323302 64 224 C51.79 224 39.58 224 27 224 C28.9161286 218.2516142 30.79528414 212.91755175 33.3359375 207.484375 C33.65191895 206.79818085 33.96790039 206.11198669 34.29345703 205.40499878 C34.96809908 203.94104609 35.64479968 202.47804052 36.32342529 201.01593018 C38.1209599 197.14260773 39.9028981 193.26210582 41.6875 189.3828125 C42.04870941 188.59881073 42.40991882 187.81480896 42.78207397 187.00704956 C46.36055834 179.23426262 49.87726942 171.43439368 53.375 163.625 C53.64930847 163.01394409 53.92361694 162.40288818 54.20623779 161.77331543 C56.62217613 156.39509714 56.62217613 156.39509714 59 151 C59.4017041 150.20384277 59.8034082 149.40768555 60.21728516 148.58740234 C62.12624619 142.27699403 59.17522359 136.47060702 56.59765625 130.7890625 C56.24875839 130.00103241 55.89986053 129.21300232 55.54039001 128.40109253 C54.38907875 125.80542789 53.22572852 123.21534307 52.0625 120.625 C51.24581913 118.78882289 50.43008006 116.95222663 49.61523438 115.11523438 C47.92177742 111.29947167 46.22428299 107.48554414 44.52392578 103.67285156 C41.01790753 95.80319652 37.56134631 87.91194933 34.10458374 80.02056885 C32.62667097 76.648094 31.145962 73.27685014 29.66523743 69.90560913 C26.54594058 62.80374314 23.42990401 55.70045762 20.31774902 48.59545898 C18.68789485 44.87480123 17.05711572 41.1545492 15.42626953 37.43432617 C14.65530136 35.67492496 13.88477744 33.915329 13.11474609 32.15551758 C12.04119514 29.70212811 10.96627976 27.24934274 9.890625 24.796875 C9.55623413 24.03342773 9.22184326 23.26998047 8.87731934 22.48339844 C6.36213974 16.76399164 3.73179562 11.10796005 1.02246094 5.47753906 C0 3 0 3 0 0 Z " fill="#FCFCFC" transform="translate(2225,417)"/>
<path d="M0 0 C10.73186848 8.63361976 17.76204818 18.7702996 22.32470703 31.76318359 C22.57220703 32.46572266 22.81970703 33.16826172 23.07470703 33.89208984 C26.35381826 45.52838039 25.15007559 59.48579835 21.32470703 70.76318359 C21.05787109 71.61009766 20.79103516 72.45701172 20.51611328 73.32958984 C15.46978461 87.66116328 4.47513464 98.65484435 -8.67529297 105.76318359 C-15.44472511 108.8568699 -22.16306552 111.55523266 -29.67529297 111.76318359 C-31.28791016 111.85599609 -31.28791016 111.85599609 -32.93310547 111.95068359 C-49.55665518 112.50595874 -63.19497664 108.42266828 -75.86279297 97.38818359 C-83.18568499 90.51292917 -88.79505841 84.11588688 -92.67529297 74.76318359 C-93.06974609 73.83119141 -93.46419922 72.89919922 -93.87060547 71.93896484 C-99.6102959 56.26519483 -98.04333527 37.00956945 -91.34326172 21.88037109 C-83.2711459 6.7947776 -70.91143881 -3.33796355 -54.87841797 -9.27197266 C-36.50895563 -14.72699255 -15.44961626 -11.40596852 0 0 Z " fill="#FBFBFB" transform="translate(1390.67529296875,139.23681640625)"/>
<path d="M0 0 C11.55 0 23.1 0 35 0 C35 78.21 35 156.42 35 237 C23.45 237 11.9 237 0 237 C0 158.79 0 80.58 0 0 Z " fill="#FEFEFE" transform="translate(2028,332)"/>
<path d="M0 0 C11.55 0 23.1 0 35 0 C35 78.21 35 156.42 35 237 C23.45 237 11.9 237 0 237 C0 158.79 0 80.58 0 0 Z " fill="#FEFEFE" transform="translate(1567,332)"/>
<path d="M0 0 C9.78915682 6.56211064 17.65244788 16.55448855 20.58203125 28.12939453 C21.38327682 32.71047436 21.42740885 37.32058883 21.45703125 41.9609375 C21.46347656 42.92290039 21.46992187 43.88486328 21.4765625 44.87597656 C21.23508269 58.41277769 16.03120202 69.50249827 6.94140625 79.45703125 C-3.03610852 88.5899926 -14.97112553 91.81710086 -28.19140625 91.546875 C-38.71712396 90.79961309 -49.03938405 85.4197419 -56.37109375 77.87890625 C-65.17821125 67.26143681 -69.64567471 55.73987924 -69.48046875 41.8984375 C-69.47072021 40.97869141 -69.46097168 40.05894531 -69.45092773 39.11132812 C-69.11145885 26.06651686 -64.44628997 16.10301049 -56.04296875 6.2734375 C-39.82618825 -8.59588456 -19.16202032 -10.87241718 0 0 Z " fill="#11100E" transform="translate(1316.04296875,450.7265625)"/>
<path d="M0 0 C9.77251428 7.14344849 16.30467101 17.47640914 18.765625 29.36328125 C20.72586208 43.79617731 19.11079218 57.68307228 10.95703125 70.11328125 C3.44687376 79.76456356 -6.15909057 87.1171594 -18.39453125 89.328125 C-31.33181492 90.8662711 -43.01030852 88.60228337 -53.51171875 80.58984375 C-65.16367012 70.49414616 -70.83363353 58.45384341 -72.078125 43.09375 C-72.45824263 28.10389401 -68.31647584 15.23846444 -57.91796875 4.17578125 C-53.95295985 0.47919655 -49.67368352 -2.07387553 -44.79296875 -4.38671875 C-44.14972656 -4.69480469 -43.50648437 -5.00289063 -42.84375 -5.3203125 C-28.5711949 -11.79095028 -12.76329216 -8.30954239 0 0 Z " fill="#11100E" transform="translate(1141.79296875,452.38671875)"/>
<path d="M0 0 C9.53299851 7.91078658 15.85683213 18.04819505 18.625 30.1875 C18.91845479 33.42185908 18.95908639 36.62871599 18.9375 39.875 C18.93186035 40.75986084 18.9262207 41.64472168 18.92041016 42.55639648 C18.66605144 56.32828381 14.58166534 69.23083466 4.625 79.1875 C-6.82586985 88.23485963 -17.67253004 91.62470774 -32.375 90.1875 C-44.35259418 87.13143192 -54.25277211 80.30106361 -61.375 70.1875 C-68.77183486 57.16263862 -71.43801865 42.75015737 -68.25 28.0625 C-63.91472394 12.7067091 -54.79944214 3.26842458 -41.375 -4.5625 C-27.26305576 -10.44247677 -12.55751484 -8.84844192 0 0 Z " fill="#11100E" transform="translate(1492.375,451.8125)"/>
<path d="M0 0 C8.9925 -0.061875 17.985 -0.12375 27.25 -0.1875 C30.0643457 -0.21481201 32.87869141 -0.24212402 35.77832031 -0.27026367 C38.04491753 -0.27903729 40.31151953 -0.28667915 42.578125 -0.29296875 C43.72587402 -0.30831665 44.87362305 -0.32366455 46.05615234 -0.33947754 C60.39769818 -0.34405658 70.71670829 3.0224265 81.25 12.75 C89.34387195 21.16633697 92.56053506 31.79488661 92.37890625 43.26171875 C91.11272104 55.7538759 84.49615374 65.58631144 75.07421875 73.46484375 C65.56494339 80.50278201 56.14612134 81.29218235 44.62890625 81.1953125 C43.49578003 81.19329834 42.36265381 81.19128418 41.19519043 81.18920898 C36.98425212 81.17878761 32.77337177 81.15086517 28.5625 81.125 C19.136875 81.08375 9.71125 81.0425 0 81 C0 54.27 0 27.54 0 0 Z " fill="#100F0D" transform="translate(1881,365)"/>
<path d="M0 0 C21 0 21 0 25.5859375 3.96875 C27.06030273 6.60107422 27.06030273 6.60107422 28.375 9.5 C29.4759911 11.53486895 30.57892374 13.56868837 31.68359375 15.6015625 C32.2235498 16.66020508 32.76350586 17.71884766 33.31982422 18.80957031 C36.0627017 24.01792878 39.26673094 28.92003482 42.4375 33.875 C43.69018073 35.87723157 44.94016525 37.88115242 46.1875 39.88671875 C48.78807273 44.05824695 51.39231941 48.22744244 54 52.39453125 C54.65943604 53.44850098 55.31887207 54.5024707 55.99829102 55.58837891 C57.24069061 57.57390332 58.48334305 59.55926954 59.72631836 61.54443359 C64.18616291 68.67542504 68.59158067 75.83631859 73 83 C73.33 55.94 73.66 28.88 74 1 C79.94 1 85.88 1 92 1 C92 39.61 92 78.22 92 118 C73 118 73 118 68.42578125 113.6640625 C67.31644532 111.68958197 66.28155677 109.67198035 65.3125 107.625 C64.10582929 105.4144562 62.89743507 103.20485251 61.6875 100.99609375 C61.08808594 99.84351074 60.48867187 98.69092773 59.87109375 97.50341797 C56.78852888 91.73165311 53.28475321 86.23026475 49.8125 80.6875 C48.47104794 78.50749927 47.13117385 76.32652665 45.79296875 74.14453125 C41.59600291 67.32987567 37.33088625 60.55987051 33.0390625 53.8046875 C28.66402363 46.88785227 24.3376965 39.94031439 20 33 C19.67 61.38 19.34 89.76 19 119 C12.73 119 6.46 119 0 119 C0 79.73 0 40.46 0 0 Z " fill="#FAFAFA" transform="translate(1431,130)"/>
<path d="M0 0 C0.33 0 0.66 0 1 0 C1.15855469 0.85980469 1.31710938 1.71960938 1.48046875 2.60546875 C5.09427009 20.91406447 12.54916931 36.99877851 25 51 C25.65226562 51.74636719 26.30453125 52.49273438 26.9765625 53.26171875 C41.23544878 68.56198437 63.08838039 79.55611845 84.08906667 80.45482948 C87.81372807 80.53604127 91.53499133 80.52526146 95.26023579 80.50139666 C96.96398917 80.50537075 98.66773919 80.5110967 100.37148159 80.51839444 C105.04020252 80.53335127 109.70858779 80.52356927 114.37729964 80.50963464 C119.48033452 80.49886389 124.58332262 80.51144634 129.68635261 80.52098203 C138.66008848 80.53454277 147.63372717 80.53323784 156.60746515 80.52224785 C170.04147921 80.50586974 183.4754145 80.51258227 196.90943035 80.52377842 C219.80520245 80.54218149 242.70092642 80.54160412 265.59669876 80.53065491 C288.80156799 80.51961767 312.00641401 80.51729338 335.21128464 80.52560425 C335.94326458 80.5258623 336.67524453 80.52612036 337.42940569 80.52638623 C344.13759295 80.5287524 350.84578017 80.53120801 357.55396736 80.53377108 C374.37520113 80.54018772 391.19643518 80.54521171 408.01766968 80.54929256 C409.17386889 80.54957397 409.17386889 80.54957397 410.35342566 80.54986107 C448.34844207 80.55897594 486.34345432 80.55283164 524.33847046 80.54518127 C526.00283287 80.54484673 527.66719529 80.5445122 529.3315577 80.54417769 C530.15642131 80.54401187 530.98128492 80.54384605 531.8311444 80.5436752 C542.70892083 80.54148913 553.58669726 80.53934269 564.46447372 80.53730202 C565.29595814 80.53714537 566.12744256 80.53698873 566.98412348 80.53682734 C605.51144733 80.52962319 644.0387691 80.53133602 682.56609325 80.53502384 C686.76880563 80.53542303 690.971518 80.53580502 695.17423037 80.53618894 C707.84163293 80.5373513 720.50903548 80.53853906 733.17643803 80.53977934 C771.80496762 80.54355751 810.43349722 80.54595844 849.06202698 80.54717255 C849.92213126 80.54720002 850.78223553 80.54722749 851.66840358 80.5472558 C907.37321062 80.54901084 963.07801533 80.5446073 1018.78282166 80.53577423 C1020.11679945 80.53556352 1020.11679945 80.53556352 1021.47772628 80.53534856 C1051.2657823 80.53064312 1081.05383826 80.52561887 1110.84189422 80.52056203 C1200.92262332 80.50528026 1291.00334408 80.49690575 1451.87561484 80.52102336 C1481.65613599 80.52607618 1511.43665714 80.53107023 1541.21717834 80.53577423 C1542.55078029 80.5359857 1542.55078029 80.5359857 1543.9113237 80.53620144 C1599.58687378 80.54502232 1655.26242225 80.54895095 1710.93797302 80.54717255 C1712.22770185 80.54713201 1712.22770185 80.54713201 1713.54348581 80.54709065 C1752.15054669 80.54586378 1790.75760739 80.5433106 1829.3646681 80.53953053 C1842.02649307 80.53829233 1854.68831804 80.53711499 1867.35014302 80.53595834 C1871.55043165 80.53557437 1875.75072027 80.53518496 1879.95100889 80.53478291 C1918.4791824 80.53110627 1957.00735312 80.53004366 1995.53552628 80.53730202 C1996.78196261 80.53753585 1996.78196261 80.53753585 1998.05357948 80.53777441 C2008.92520043 80.53982159 2019.79682137 80.54199216 2030.6684423 80.54417769 C2031.4926555 80.54434335 2032.31686869 80.544509 2033.16605805 80.54467967 C2034.82890993 80.54501391 2036.49176182 80.54534844 2038.1546137 80.54568326 C2076.0971875 80.55330315 2114.03975636 80.55852744 2151.98233032 80.54929256 C2152.75211545 80.54910581 2153.52190059 80.54891906 2154.31501254 80.54872665 C2171.10865477 80.54460617 2187.90229643 80.53932795 2204.69593793 80.53291144 C2211.39353037 80.53036785 2218.09112286 80.52796545 2224.78871536 80.52560425 C2225.5193093 80.52534258 2226.24990324 80.52508092 2227.00263639 80.52481133 C2250.17801117 80.51657652 2273.35336201 80.52058841 2296.52873502 80.53167133 C2319.97770241 80.54282928 2343.42661833 80.5401667 2366.87558448 80.52062392 C2380.21897852 80.5099283 2393.56226438 80.51020888 2406.90565332 80.52655031 C2415.76065828 80.53630534 2424.61557878 80.53162962 2433.47057349 80.51508289 C2438.49458461 80.50610142 2443.51837985 80.5033539 2448.54238151 80.51834896 C2453.10515934 80.53185004 2457.66753464 80.52679403 2462.23028718 80.50725014 C2463.86233019 80.50344331 2465.49440647 80.50623107 2467.12642044 80.51668614 C2492.59336497 80.66849242 2514.79400577 70.92827568 2533 53 C2547.28665858 38.73970057 2555.99515588 19.86201964 2559 0 C2559.33 0 2559.66 0 2560 0 C2560 27.06 2560 54.12 2560 82 C1715.2 82 870.4 82 0 82 C0 54.94 0 27.88 0 0 Z " fill="#727271" transform="translate(0,677)"/>
<path d="M0 0 C2.16085074 1.89913279 4.26640194 3.83021186 6.328125 5.8359375 C4.74144922 9.73879517 2.19462019 12.17114732 -0.796875 15.0859375 C-2.16199219 16.42398438 -2.16199219 16.42398438 -3.5546875 17.7890625 C-4.60269531 18.80226562 -4.60269531 18.80226562 -5.671875 19.8359375 C-8.34817168 18.6097681 -9.75927424 17.74082656 -11.796875 15.5234375 C-20.83005914 7.07937407 -31.59193423 6.347973 -43.40234375 6.5625 C-53.0891391 6.99359334 -60.76383365 11.18857695 -67.671875 17.8359375 C-76.89254008 28.1329448 -80.17225914 38.44403554 -79.859375 52.2109375 C-79.03565508 63.74301633 -74.35359966 74.48380464 -65.9296875 82.4921875 C-54.94600727 91.42497308 -43.35868316 93.17432156 -29.671875 91.8359375 C-20.22541334 90.36407502 -11.92477387 85.29268608 -5.953125 77.828125 C-2.57119751 72.56964019 -0.88849977 66.91906135 0.328125 60.8359375 C-12.871875 60.8359375 -26.071875 60.8359375 -39.671875 60.8359375 C-39.671875 55.2259375 -39.671875 49.6159375 -39.671875 43.8359375 C-19.871875 43.8359375 -0.071875 43.8359375 20.328125 43.8359375 C19.31319233 66.16445625 17.83437699 82.52496583 1.328125 97.8359375 C-13.71365504 109.09502138 -30.19321716 112.95608762 -48.78955078 110.56347656 C-64.63926332 107.92869977 -78.06373192 99.35728298 -87.859375 86.6484375 C-91.77975085 81.02923211 -94.41621546 75.28678201 -96.671875 68.8359375 C-97.15140625 67.54623047 -97.15140625 67.54623047 -97.640625 66.23046875 C-102.64187267 50.92572473 -99.87616153 34.91044414 -93.046875 20.7109375 C-85.95552531 6.80267874 -74.05814283 -4.21847543 -59.1796875 -9.45703125 C-39.19005965 -15.0927363 -16.557313 -13.41045527 0 0 Z " fill="#FBFBFB" transform="translate(881.671875,140.1640625)"/>
<path d="M0 0 C2.03215746 1.44655483 3.87934424 2.97821574 5.734375 4.64453125 C6.35054687 5.16917969 6.96671875 5.69382813 7.6015625 6.234375 C14.41503229 12.44837641 19.05949818 21.41034069 19.9230957 30.66748047 C20.00160711 32.80947092 20.00752399 34.93882042 19.984375 37.08203125 C19.99597656 38.1503418 19.99597656 38.1503418 20.0078125 39.24023438 C19.96534684 50.92890842 15.59970314 61.92013999 7.609375 70.51953125 C-2.50299721 79.93036833 -13.71419719 82.26794488 -27.15234375 81.984375 C-37.72006543 81.39524224 -46.94928741 75.35335014 -54.01171875 67.76953125 C-63.71566723 55.76664235 -64.53458054 41.45357059 -63.265625 26.64453125 C-60.7880456 16.14685647 -54.12679587 6.78318974 -45.265625 0.64453125 C-31.30175597 -7.34098891 -14.20397593 -8.49789595 0 0 Z " fill="#11100E" transform="translate(1376.265625,151.35546875)"/>
<path d="M0 0 C23.43 0 46.86 0 71 0 C71 6.27 71 12.54 71 19 C53.84 19 36.68 19 19 19 C19 29.56 19 40.12 19 51 C34.18 51 49.36 51 65 51 C65 56.61 65 62.22 65 68 C49.82 68 34.64 68 19 68 C19 78.89 19 89.78 19 101 C36.16 101 53.32 101 71 101 C71 106.94 71 112.88 71 119 C47.57 119 24.14 119 0 119 C0 79.73 0 40.46 0 0 Z " fill="#F6F6F6" transform="translate(918,130)"/>
<path d="M0 0 C27.06 0 54.12 0 82 0 C82 5.94 82 11.88 82 18 C71.44 18 60.88 18 50 18 C50 51 50 84 50 118 C44.06 118 38.12 118 32 118 C32 85 32 52 32 18 C21.44 18 10.88 18 0 18 C0 12.06 0 6.12 0 0 Z " fill="#FCFCFC" transform="translate(1168,130)"/>
<path d="M0 0 C27.06 0 54.12 0 82 0 C82 5.94 82 11.88 82 18 C71.44 18 60.88 18 50 18 C50 51 50 84 50 118 C44.06 118 38.12 118 32 118 C32 85 32 52 32 18 C21.44 18 10.88 18 0 18 C0 12.06 0 6.12 0 0 Z " fill="#FCFCFC" transform="translate(1000,130)"/>
<path d="M0 0 C-1.54455722 10.83495367 -5.45661715 20.76759368 -14.22265625 27.77734375 C-25.27363611 35.85634448 -35.26032468 39.11360382 -49 38 C-56.04703899 36.41893356 -62.29237349 33.60623328 -67 28 C-70.03532291 22.61474968 -70.901249 18.10027698 -69.56640625 12.02734375 C-67.48008626 5.30187745 -63.37884319 0.84952237 -57.23828125 -2.51171875 C-39.44263597 -10.80368164 -17.24687793 -9.11316513 0 0 Z " fill="#12110F" transform="translate(2188,504)"/>
<path d="M0 0 C5.94 0 11.88 0 18 0 C18 38.61 18 77.22 18 117 C12.06 117 6.12 117 0 117 C0 78.39 0 39.78 0 0 Z " fill="#FFFFFF" transform="translate(1135,131)"/>
<path d="M0 0 C0.33 0 0.66 0 1 0 C1 27.06 1 54.12 1 82 C-27.05 82 -55.1 82 -84 82 C-84 81.67 -84 81.34 -84 81 C-83.030625 80.85304688 -82.06125 80.70609375 -81.0625 80.5546875 C-58.97949512 76.96553841 -40.73951714 67.95414692 -25 52 C-24.33484375 51.33355469 -23.6696875 50.66710937 -22.984375 49.98046875 C-10.33310027 36.4458843 -2.74544102 18.14736517 0 0 Z " fill="#000000" transform="translate(2559,677)"/>
<path d="M0 0 C0.33 0 0.66 0 1 0 C1.15855469 0.85980469 1.31710938 1.71960938 1.48046875 2.60546875 C5.09427009 20.91406447 12.54916931 36.99877851 25 51 C25.65226562 51.74636719 26.30453125 52.49273438 26.9765625 53.26171875 C42.0517897 69.43794569 63.35182419 78.20757886 85 81 C85 81.33 85 81.66 85 82 C56.95 82 28.9 82 0 82 C0 54.94 0 27.88 0 0 Z " fill="#000000" transform="translate(0,677)"/>
<path d="M0 0 C26.73 0 53.46 0 81 0 C81 26.73 81 53.46 81 81 C80.67 81 80.34 81 80 81 C79.78085938 79.93523437 79.56171875 78.87046875 79.3359375 77.7734375 C73.81095965 52.01210834 60.44480095 29.53126077 38 15 C26.3848545 8.02430636 13.43753981 2.96394813 0 1 C0 0.67 0 0.34 0 0 Z " fill="#000000" transform="translate(2479,0)"/>
<path d="M0 0 C26.73 0 53.46 0 81 0 C81 0.33 81 0.66 81 1 C79.9584375 1.20753906 78.916875 1.41507812 77.84375 1.62890625 C52.06609043 7.04828009 30.97201265 19.86261072 16 42 C8.00843637 54.25265892 3.63709117 66.69967633 1 81 C0.67 81 0.34 81 0 81 C0 54.27 0 27.54 0 0 Z " fill="#000000" transform="translate(0,0)"/>
<path d="M0 0 C5.0991659 2.88505439 9.13132165 6.47823247 12.375 11.34375 C12.24919128 13.40278625 12.24919128 13.40278625 11.375 15.34375 C9.65644836 16.48551941 9.65644836 16.48551941 7.38793945 17.39916992 C6.53806961 17.75021286 5.68819977 18.1012558 4.81257629 18.4629364 C3.88055893 18.82965958 2.94854156 19.19638275 1.98828125 19.57421875 C1.02085495 19.96893875 0.05342865 20.36365875 -0.9433136 20.77033997 C-4.06073814 22.03844513 -7.18623172 23.28512857 -10.3125 24.53125 C-12.33846277 25.3508006 -14.36386026 26.17175006 -16.38867188 26.99414062 C-20.42924886 28.63311632 -24.47361602 30.26217908 -28.52099609 31.88427734 C-32.68408921 33.55576204 -36.83686643 35.25004218 -40.98291016 36.96337891 C-41.99762894 37.38218826 -43.01234772 37.80099762 -44.05781555 38.23249817 C-45.99420672 39.03310676 -47.92946969 39.83645096 -49.8634491 40.64286804 C-50.72424576 40.99831192 -51.58504242 41.3537558 -52.47192383 41.7199707 C-53.22838699 42.03456741 -53.98485016 42.34916412 -54.76423645 42.67329407 C-56.625 43.34375 -56.625 43.34375 -58.625 43.34375 C-59.32548495 32.1943646 -57.51678881 23.01902295 -50.3046875 14.24609375 C-49.47324219 13.30443359 -49.47324219 13.30443359 -48.625 12.34375 C-48.05007813 11.66441406 -47.47515625 10.98507812 -46.8828125 10.28515625 C-35.16192119 -2.57864355 -16.09085131 -6.86804629 0 0 Z " fill="#12110F" transform="translate(1713.625,446.65625)"/>
<path d="M0 0 C0.66 0.33 1.32 0.66 2 1 C-2.62 5.62 -7.24 10.24 -12 15 C-12.66 14.67 -13.32 14.34 -14 14 C-9.61932717 8.89662734 -5.32423478 4.12628195 0 0 Z " fill="#7E7D7D" transform="translate(36,19)"/>
</svg>
