<?xml version="1.0" encoding="UTF-8"?>
<svg version="1.1" xmlns="http://www.w3.org/2000/svg" width="225" height="225">
<path d="M0 0 C74.25 0 148.5 0 225 0 C225 74.25 225 148.5 225 225 C150.75 225 76.5 225 0 225 C0 150.75 0 76.5 0 0 Z " fill="#0C64C4" transform="translate(0,0)"/>
<path d="M0 0 C8.08996076 4.91176189 12.90460049 11.94081001 15.375 21 C15.88412568 25.78396369 15.84298537 30.51389361 15.765625 35.3203125 C15.75814639 36.6736466 15.75246113 38.02699168 15.74847412 39.38034058 C15.73334469 42.90851786 15.69417698 46.43601576 15.6496582 49.96392822 C15.60842764 53.57741953 15.59018375 57.19102602 15.5703125 60.8046875 C15.52979816 67.8703878 15.45147854 74.93423291 15.375 82 C6.795 82 -1.785 82 -10.625 82 C-10.65078125 78.24367188 -10.6765625 74.48734375 -10.703125 70.6171875 C-10.74155353 66.97323153 -10.78671142 63.32941666 -10.83251953 59.68554688 C-10.86071932 57.15599317 -10.88193873 54.62635151 -10.89599609 52.09667969 C-10.91743829 48.45722454 -10.9640986 44.81882585 -11.015625 41.1796875 C-11.01685364 40.05134491 -11.01808228 38.92300232 -11.01934814 37.76046753 C-11.13465918 31.55799403 -11.43337396 27.70446289 -15.625 23 C-18.61378817 20.65166644 -21.84706082 20.57882851 -25.59765625 20.68359375 C-29.00729184 21.21573341 -31.05010651 22.78439398 -33.625 25 C-36.8816288 29.49190179 -37.72968324 33.39709005 -37.83032227 38.86035156 C-37.85026749 39.82104553 -37.87021271 40.7817395 -37.89076233 41.77154541 C-37.90747482 42.80084167 -37.92418732 43.83013794 -37.94140625 44.890625 C-37.96218735 45.95037537 -37.98296844 47.01012573 -38.00437927 48.10198975 C-38.06972186 51.48459438 -38.12868881 54.86727612 -38.1875 58.25 C-38.23069975 60.54427878 -38.27431451 62.83854979 -38.31835938 65.1328125 C-38.42616793 70.75513048 -38.52535553 76.37750766 -38.625 82 C-47.205 82 -55.785 82 -64.625 82 C-64.625 54.94 -64.625 27.88 -64.625 0 C-56.375 0 -48.125 0 -39.625 0 C-39.295 3.3 -38.965 6.6 -38.625 10 C-37.449375 8.4221875 -37.449375 8.4221875 -36.25 6.8125 C-27.36012879 -3.28869315 -12.2051854 -5.48673472 0 0 Z " fill="#FCFDFE" transform="translate(157.625,92)"/>
<path d="M0 0 C8.58 0 17.16 0 26 0 C26 27.06 26 54.12 26 82 C17.42 82 8.84 82 0 82 C0 54.94 0 27.88 0 0 Z " fill="#FCFDFE" transform="translate(52,92)"/>
<path d="M0 0 C4.73829769 1.66717882 7.2011938 3.85362045 10 8 C11.57395026 12.72185079 11.57413051 16.53596719 9.75 21.1875 C6.94834553 25.69015897 4.25966555 28.71430398 -1 30 C-7.01664897 30.10027748 -11.33388014 28.99953131 -16 25 C-19.52144252 21.12641322 -19.67170671 16.84476607 -19.5625 11.80078125 C-18.60357494 7.02613357 -15.63635705 4.0769175 -12 1 C-8.30506957 -0.84746521 -4.04115396 -0.3419438 0 0 Z " fill="#F9FBFD" transform="translate(69,51)"/>
</svg>
